G04 #@! TF.GenerationSoftware,KiCad,Pcbnew,6.0.5-a6ca702e91~116~ubuntu20.04.1*
G04 #@! TF.CreationDate,2022-06-19T21:22:33+02:00*
G04 #@! TF.ProjectId,attiny85_charlie_circle,61747469-6e79-4383-955f-636861726c69,0.10*
G04 #@! TF.SameCoordinates,Original*
G04 #@! TF.FileFunction,Legend,Top*
G04 #@! TF.FilePolarity,Positive*
%FSLAX46Y46*%
G04 Gerber Fmt 4.6, Leading zero omitted, Abs format (unit mm)*
G04 Created by KiCad (PCBNEW 6.0.5-a6ca702e91~116~ubuntu20.04.1) date 2022-06-19 21:22:33*
%MOMM*%
%LPD*%
G01*
G04 APERTURE LIST*
G04 Aperture macros list*
%AMRoundRect*
0 Rectangle with rounded corners*
0 $1 Rounding radius*
0 $2 $3 $4 $5 $6 $7 $8 $9 X,Y pos of 4 corners*
0 Add a 4 corners polygon primitive as box body*
4,1,4,$2,$3,$4,$5,$6,$7,$8,$9,$2,$3,0*
0 Add four circle primitives for the rounded corners*
1,1,$1+$1,$2,$3*
1,1,$1+$1,$4,$5*
1,1,$1+$1,$6,$7*
1,1,$1+$1,$8,$9*
0 Add four rect primitives between the rounded corners*
20,1,$1+$1,$2,$3,$4,$5,0*
20,1,$1+$1,$4,$5,$6,$7,0*
20,1,$1+$1,$6,$7,$8,$9,0*
20,1,$1+$1,$8,$9,$2,$3,0*%
G04 Aperture macros list end*
%ADD10C,0.600000*%
%ADD11C,0.300000*%
%ADD12C,0.200000*%
%ADD13C,0.150000*%
%ADD14C,0.120000*%
%ADD15C,0.010000*%
%ADD16RoundRect,0.051000X-0.762000X-0.762000X0.762000X-0.762000X0.762000X0.762000X-0.762000X0.762000X0*%
%ADD17C,1.626000*%
%ADD18C,1.702000*%
%ADD19O,1.702000X1.702000*%
%ADD20RoundRect,0.051000X-0.800000X-0.800000X0.800000X-0.800000X0.800000X0.800000X-0.800000X0.800000X0*%
%ADD21RoundRect,0.051000X-0.900000X-0.900000X0.900000X-0.900000X0.900000X0.900000X-0.900000X0.900000X0*%
%ADD22C,1.902000*%
%ADD23RoundRect,0.051000X1.000000X-1.000000X1.000000X1.000000X-1.000000X1.000000X-1.000000X-1.000000X0*%
%ADD24C,2.102000*%
%ADD25RoundRect,0.051000X-1.300000X-1.800000X1.300000X-1.800000X1.300000X1.800000X-1.300000X1.800000X0*%
%ADD26C,1.502000*%
G04 APERTURE END LIST*
D10*
X108591400Y-106000000D02*
G75*
G03*
X108591400Y-106000000I-141400J0D01*
G01*
D11*
X118380000Y-83633571D02*
X118665714Y-83633571D01*
X118808571Y-83705000D01*
X118951428Y-83847857D01*
X119022857Y-84133571D01*
X119022857Y-84633571D01*
X118951428Y-84919285D01*
X118808571Y-85062142D01*
X118665714Y-85133571D01*
X118380000Y-85133571D01*
X118237142Y-85062142D01*
X118094285Y-84919285D01*
X118022857Y-84633571D01*
X118022857Y-84133571D01*
X118094285Y-83847857D01*
X118237142Y-83705000D01*
X118380000Y-83633571D01*
X119451428Y-84133571D02*
X120022857Y-84133571D01*
X119665714Y-85133571D02*
X119665714Y-83847857D01*
X119737142Y-83705000D01*
X119880000Y-83633571D01*
X120022857Y-83633571D01*
X120308571Y-84133571D02*
X120880000Y-84133571D01*
X120522857Y-85133571D02*
X120522857Y-83847857D01*
X120594285Y-83705000D01*
X120737142Y-83633571D01*
X120880000Y-83633571D01*
X122126428Y-87586428D02*
X122197857Y-87515000D01*
X122340714Y-87443571D01*
X122697857Y-87443571D01*
X122840714Y-87515000D01*
X122912142Y-87586428D01*
X122983571Y-87729285D01*
X122983571Y-87872142D01*
X122912142Y-88086428D01*
X122055000Y-88943571D01*
X122983571Y-88943571D01*
X78454285Y-87673571D02*
X77597142Y-87673571D01*
X78025714Y-87673571D02*
X78025714Y-86173571D01*
X77882857Y-86387857D01*
X77740000Y-86530714D01*
X77597142Y-86602142D01*
X79382857Y-86173571D02*
X79525714Y-86173571D01*
X79668571Y-86245000D01*
X79740000Y-86316428D01*
X79811428Y-86459285D01*
X79882857Y-86745000D01*
X79882857Y-87102142D01*
X79811428Y-87387857D01*
X79740000Y-87530714D01*
X79668571Y-87602142D01*
X79525714Y-87673571D01*
X79382857Y-87673571D01*
X79240000Y-87602142D01*
X79168571Y-87530714D01*
X79097142Y-87387857D01*
X79025714Y-87102142D01*
X79025714Y-86745000D01*
X79097142Y-86459285D01*
X79168571Y-86316428D01*
X79240000Y-86245000D01*
X79382857Y-86173571D01*
X77962142Y-112216428D02*
X77819285Y-112145000D01*
X77747857Y-112073571D01*
X77676428Y-111930714D01*
X77676428Y-111859285D01*
X77747857Y-111716428D01*
X77819285Y-111645000D01*
X77962142Y-111573571D01*
X78247857Y-111573571D01*
X78390714Y-111645000D01*
X78462142Y-111716428D01*
X78533571Y-111859285D01*
X78533571Y-111930714D01*
X78462142Y-112073571D01*
X78390714Y-112145000D01*
X78247857Y-112216428D01*
X77962142Y-112216428D01*
X77819285Y-112287857D01*
X77747857Y-112359285D01*
X77676428Y-112502142D01*
X77676428Y-112787857D01*
X77747857Y-112930714D01*
X77819285Y-113002142D01*
X77962142Y-113073571D01*
X78247857Y-113073571D01*
X78390714Y-113002142D01*
X78462142Y-112930714D01*
X78533571Y-112787857D01*
X78533571Y-112502142D01*
X78462142Y-112359285D01*
X78390714Y-112287857D01*
X78247857Y-112216428D01*
X87344285Y-78783571D02*
X86487142Y-78783571D01*
X86915714Y-78783571D02*
X86915714Y-77283571D01*
X86772857Y-77497857D01*
X86630000Y-77640714D01*
X86487142Y-77712142D01*
X88772857Y-78783571D02*
X87915714Y-78783571D01*
X88344285Y-78783571D02*
X88344285Y-77283571D01*
X88201428Y-77497857D01*
X88058571Y-77640714D01*
X87915714Y-77712142D01*
X112823571Y-79418571D02*
X111966428Y-79418571D01*
X112395000Y-79418571D02*
X112395000Y-77918571D01*
X112252142Y-78132857D01*
X112109285Y-78275714D01*
X111966428Y-78347142D01*
X118558571Y-95063571D02*
X118844285Y-95063571D01*
X118987142Y-95135000D01*
X119130000Y-95277857D01*
X119201428Y-95563571D01*
X119201428Y-96063571D01*
X119130000Y-96349285D01*
X118987142Y-96492142D01*
X118844285Y-96563571D01*
X118558571Y-96563571D01*
X118415714Y-96492142D01*
X118272857Y-96349285D01*
X118201428Y-96063571D01*
X118201428Y-95563571D01*
X118272857Y-95277857D01*
X118415714Y-95135000D01*
X118558571Y-95063571D01*
X119844285Y-95563571D02*
X119844285Y-96563571D01*
X119844285Y-95706428D02*
X119915714Y-95635000D01*
X120058571Y-95563571D01*
X120272857Y-95563571D01*
X120415714Y-95635000D01*
X120487142Y-95777857D01*
X120487142Y-96563571D01*
D12*
X93996666Y-77487142D02*
X93949047Y-77534761D01*
X93806190Y-77582380D01*
X93710952Y-77582380D01*
X93568095Y-77534761D01*
X93472857Y-77439523D01*
X93425238Y-77344285D01*
X93377619Y-77153809D01*
X93377619Y-77010952D01*
X93425238Y-76820476D01*
X93472857Y-76725238D01*
X93568095Y-76630000D01*
X93710952Y-76582380D01*
X93806190Y-76582380D01*
X93949047Y-76630000D01*
X93996666Y-76677619D01*
X94425238Y-77582380D02*
X94425238Y-76582380D01*
X94853809Y-77582380D02*
X94853809Y-77058571D01*
X94806190Y-76963333D01*
X94710952Y-76915714D01*
X94568095Y-76915714D01*
X94472857Y-76963333D01*
X94425238Y-77010952D01*
X95758571Y-77582380D02*
X95758571Y-77058571D01*
X95710952Y-76963333D01*
X95615714Y-76915714D01*
X95425238Y-76915714D01*
X95330000Y-76963333D01*
X95758571Y-77534761D02*
X95663333Y-77582380D01*
X95425238Y-77582380D01*
X95330000Y-77534761D01*
X95282380Y-77439523D01*
X95282380Y-77344285D01*
X95330000Y-77249047D01*
X95425238Y-77201428D01*
X95663333Y-77201428D01*
X95758571Y-77153809D01*
X96234761Y-77582380D02*
X96234761Y-76915714D01*
X96234761Y-77106190D02*
X96282380Y-77010952D01*
X96330000Y-76963333D01*
X96425238Y-76915714D01*
X96520476Y-76915714D01*
X96996666Y-77582380D02*
X96901428Y-77534761D01*
X96853809Y-77439523D01*
X96853809Y-76582380D01*
X97377619Y-77582380D02*
X97377619Y-76915714D01*
X97377619Y-76582380D02*
X97330000Y-76630000D01*
X97377619Y-76677619D01*
X97425238Y-76630000D01*
X97377619Y-76582380D01*
X97377619Y-76677619D01*
X98234761Y-77534761D02*
X98139523Y-77582380D01*
X97949047Y-77582380D01*
X97853809Y-77534761D01*
X97806190Y-77439523D01*
X97806190Y-77058571D01*
X97853809Y-76963333D01*
X97949047Y-76915714D01*
X98139523Y-76915714D01*
X98234761Y-76963333D01*
X98282380Y-77058571D01*
X98282380Y-77153809D01*
X97806190Y-77249047D01*
X100044285Y-77487142D02*
X99996666Y-77534761D01*
X99853809Y-77582380D01*
X99758571Y-77582380D01*
X99615714Y-77534761D01*
X99520476Y-77439523D01*
X99472857Y-77344285D01*
X99425238Y-77153809D01*
X99425238Y-77010952D01*
X99472857Y-76820476D01*
X99520476Y-76725238D01*
X99615714Y-76630000D01*
X99758571Y-76582380D01*
X99853809Y-76582380D01*
X99996666Y-76630000D01*
X100044285Y-76677619D01*
X100472857Y-77582380D02*
X100472857Y-76915714D01*
X100472857Y-76582380D02*
X100425238Y-76630000D01*
X100472857Y-76677619D01*
X100520476Y-76630000D01*
X100472857Y-76582380D01*
X100472857Y-76677619D01*
X100949047Y-77582380D02*
X100949047Y-76915714D01*
X100949047Y-77106190D02*
X100996666Y-77010952D01*
X101044285Y-76963333D01*
X101139523Y-76915714D01*
X101234761Y-76915714D01*
X101996666Y-77534761D02*
X101901428Y-77582380D01*
X101710952Y-77582380D01*
X101615714Y-77534761D01*
X101568095Y-77487142D01*
X101520476Y-77391904D01*
X101520476Y-77106190D01*
X101568095Y-77010952D01*
X101615714Y-76963333D01*
X101710952Y-76915714D01*
X101901428Y-76915714D01*
X101996666Y-76963333D01*
X102568095Y-77582380D02*
X102472857Y-77534761D01*
X102425238Y-77439523D01*
X102425238Y-76582380D01*
X103330000Y-77534761D02*
X103234761Y-77582380D01*
X103044285Y-77582380D01*
X102949047Y-77534761D01*
X102901428Y-77439523D01*
X102901428Y-77058571D01*
X102949047Y-76963333D01*
X103044285Y-76915714D01*
X103234761Y-76915714D01*
X103330000Y-76963333D01*
X103377619Y-77058571D01*
X103377619Y-77153809D01*
X102901428Y-77249047D01*
X104472857Y-76915714D02*
X104710952Y-77582380D01*
X104949047Y-76915714D01*
X105853809Y-77582380D02*
X105282380Y-77582380D01*
X105568095Y-77582380D02*
X105568095Y-76582380D01*
X105472857Y-76725238D01*
X105377619Y-76820476D01*
X105282380Y-76868095D01*
X106282380Y-77487142D02*
X106329999Y-77534761D01*
X106282380Y-77582380D01*
X106234761Y-77534761D01*
X106282380Y-77487142D01*
X106282380Y-77582380D01*
X106949047Y-76582380D02*
X107044285Y-76582380D01*
X107139523Y-76630000D01*
X107187142Y-76677619D01*
X107234761Y-76772857D01*
X107282380Y-76963333D01*
X107282380Y-77201428D01*
X107234761Y-77391904D01*
X107187142Y-77487142D01*
X107139523Y-77534761D01*
X107044285Y-77582380D01*
X106949047Y-77582380D01*
X106853809Y-77534761D01*
X106806190Y-77487142D01*
X106758571Y-77391904D01*
X106710952Y-77201428D01*
X106710952Y-76963333D01*
X106758571Y-76772857D01*
X106806190Y-76677619D01*
X106853809Y-76630000D01*
X106949047Y-76582380D01*
X95615714Y-79192380D02*
X95615714Y-78192380D01*
X95853809Y-78192380D01*
X95996666Y-78240000D01*
X96091904Y-78335238D01*
X96139523Y-78430476D01*
X96187142Y-78620952D01*
X96187142Y-78763809D01*
X96139523Y-78954285D01*
X96091904Y-79049523D01*
X95996666Y-79144761D01*
X95853809Y-79192380D01*
X95615714Y-79192380D01*
X96996666Y-79144761D02*
X96901428Y-79192380D01*
X96710952Y-79192380D01*
X96615714Y-79144761D01*
X96568095Y-79049523D01*
X96568095Y-78668571D01*
X96615714Y-78573333D01*
X96710952Y-78525714D01*
X96901428Y-78525714D01*
X96996666Y-78573333D01*
X97044285Y-78668571D01*
X97044285Y-78763809D01*
X96568095Y-78859047D01*
X97425238Y-79144761D02*
X97520476Y-79192380D01*
X97710952Y-79192380D01*
X97806190Y-79144761D01*
X97853809Y-79049523D01*
X97853809Y-79001904D01*
X97806190Y-78906666D01*
X97710952Y-78859047D01*
X97568095Y-78859047D01*
X97472857Y-78811428D01*
X97425238Y-78716190D01*
X97425238Y-78668571D01*
X97472857Y-78573333D01*
X97568095Y-78525714D01*
X97710952Y-78525714D01*
X97806190Y-78573333D01*
X98282380Y-79192380D02*
X98282380Y-78525714D01*
X98282380Y-78192380D02*
X98234761Y-78240000D01*
X98282380Y-78287619D01*
X98330000Y-78240000D01*
X98282380Y-78192380D01*
X98282380Y-78287619D01*
X99187142Y-78525714D02*
X99187142Y-79335238D01*
X99139523Y-79430476D01*
X99091904Y-79478095D01*
X98996666Y-79525714D01*
X98853809Y-79525714D01*
X98758571Y-79478095D01*
X99187142Y-79144761D02*
X99091904Y-79192380D01*
X98901428Y-79192380D01*
X98806190Y-79144761D01*
X98758571Y-79097142D01*
X98710952Y-79001904D01*
X98710952Y-78716190D01*
X98758571Y-78620952D01*
X98806190Y-78573333D01*
X98901428Y-78525714D01*
X99091904Y-78525714D01*
X99187142Y-78573333D01*
X99663333Y-78525714D02*
X99663333Y-79192380D01*
X99663333Y-78620952D02*
X99710952Y-78573333D01*
X99806190Y-78525714D01*
X99949047Y-78525714D01*
X100044285Y-78573333D01*
X100091904Y-78668571D01*
X100091904Y-79192380D01*
X100949047Y-79144761D02*
X100853809Y-79192380D01*
X100663333Y-79192380D01*
X100568095Y-79144761D01*
X100520476Y-79049523D01*
X100520476Y-78668571D01*
X100568095Y-78573333D01*
X100663333Y-78525714D01*
X100853809Y-78525714D01*
X100949047Y-78573333D01*
X100996666Y-78668571D01*
X100996666Y-78763809D01*
X100520476Y-78859047D01*
X101853809Y-79192380D02*
X101853809Y-78192380D01*
X101853809Y-79144761D02*
X101758571Y-79192380D01*
X101568095Y-79192380D01*
X101472857Y-79144761D01*
X101425238Y-79097142D01*
X101377619Y-79001904D01*
X101377619Y-78716190D01*
X101425238Y-78620952D01*
X101472857Y-78573333D01*
X101568095Y-78525714D01*
X101758571Y-78525714D01*
X101853809Y-78573333D01*
X103091904Y-79192380D02*
X103091904Y-78192380D01*
X103091904Y-78573333D02*
X103187142Y-78525714D01*
X103377619Y-78525714D01*
X103472857Y-78573333D01*
X103520476Y-78620952D01*
X103568095Y-78716190D01*
X103568095Y-79001904D01*
X103520476Y-79097142D01*
X103472857Y-79144761D01*
X103377619Y-79192380D01*
X103187142Y-79192380D01*
X103091904Y-79144761D01*
X103901428Y-78525714D02*
X104139523Y-79192380D01*
X104377619Y-78525714D02*
X104139523Y-79192380D01*
X104044285Y-79430476D01*
X103996666Y-79478095D01*
X103901428Y-79525714D01*
X96115714Y-80802380D02*
X95782380Y-80326190D01*
X95544285Y-80802380D02*
X95544285Y-79802380D01*
X95925238Y-79802380D01*
X96020476Y-79850000D01*
X96068095Y-79897619D01*
X96115714Y-79992857D01*
X96115714Y-80135714D01*
X96068095Y-80230952D01*
X96020476Y-80278571D01*
X95925238Y-80326190D01*
X95544285Y-80326190D01*
X96687142Y-80802380D02*
X96591904Y-80754761D01*
X96544285Y-80707142D01*
X96496666Y-80611904D01*
X96496666Y-80326190D01*
X96544285Y-80230952D01*
X96591904Y-80183333D01*
X96687142Y-80135714D01*
X96830000Y-80135714D01*
X96925238Y-80183333D01*
X96972857Y-80230952D01*
X97020476Y-80326190D01*
X97020476Y-80611904D01*
X96972857Y-80707142D01*
X96925238Y-80754761D01*
X96830000Y-80802380D01*
X96687142Y-80802380D01*
X97449047Y-80802380D02*
X97449047Y-79802380D01*
X97449047Y-80183333D02*
X97544285Y-80135714D01*
X97734761Y-80135714D01*
X97830000Y-80183333D01*
X97877619Y-80230952D01*
X97925238Y-80326190D01*
X97925238Y-80611904D01*
X97877619Y-80707142D01*
X97830000Y-80754761D01*
X97734761Y-80802380D01*
X97544285Y-80802380D01*
X97449047Y-80754761D01*
X98734761Y-80754761D02*
X98639523Y-80802380D01*
X98449047Y-80802380D01*
X98353809Y-80754761D01*
X98306190Y-80659523D01*
X98306190Y-80278571D01*
X98353809Y-80183333D01*
X98449047Y-80135714D01*
X98639523Y-80135714D01*
X98734761Y-80183333D01*
X98782380Y-80278571D01*
X98782380Y-80373809D01*
X98306190Y-80469047D01*
X99210952Y-80802380D02*
X99210952Y-80135714D01*
X99210952Y-80326190D02*
X99258571Y-80230952D01*
X99306190Y-80183333D01*
X99401428Y-80135714D01*
X99496666Y-80135714D01*
X99687142Y-80135714D02*
X100068095Y-80135714D01*
X99830000Y-79802380D02*
X99830000Y-80659523D01*
X99877619Y-80754761D01*
X99972857Y-80802380D01*
X100068095Y-80802380D01*
X101115714Y-80754761D02*
X101258571Y-80802380D01*
X101496666Y-80802380D01*
X101591904Y-80754761D01*
X101639523Y-80707142D01*
X101687142Y-80611904D01*
X101687142Y-80516666D01*
X101639523Y-80421428D01*
X101591904Y-80373809D01*
X101496666Y-80326190D01*
X101306190Y-80278571D01*
X101210952Y-80230952D01*
X101163333Y-80183333D01*
X101115714Y-80088095D01*
X101115714Y-79992857D01*
X101163333Y-79897619D01*
X101210952Y-79850000D01*
X101306190Y-79802380D01*
X101544285Y-79802380D01*
X101687142Y-79850000D01*
X102496666Y-80754761D02*
X102401428Y-80802380D01*
X102210952Y-80802380D01*
X102115714Y-80754761D01*
X102068095Y-80659523D01*
X102068095Y-80278571D01*
X102115714Y-80183333D01*
X102210952Y-80135714D01*
X102401428Y-80135714D01*
X102496666Y-80183333D01*
X102544285Y-80278571D01*
X102544285Y-80373809D01*
X102068095Y-80469047D01*
X103401428Y-80802380D02*
X103401428Y-79802380D01*
X103401428Y-80754761D02*
X103306190Y-80802380D01*
X103115714Y-80802380D01*
X103020476Y-80754761D01*
X102972857Y-80707142D01*
X102925238Y-80611904D01*
X102925238Y-80326190D01*
X102972857Y-80230952D01*
X103020476Y-80183333D01*
X103115714Y-80135714D01*
X103306190Y-80135714D01*
X103401428Y-80183333D01*
X104306190Y-80802380D02*
X104306190Y-80278571D01*
X104258571Y-80183333D01*
X104163333Y-80135714D01*
X103972857Y-80135714D01*
X103877619Y-80183333D01*
X104306190Y-80754761D02*
X104210952Y-80802380D01*
X103972857Y-80802380D01*
X103877619Y-80754761D01*
X103830000Y-80659523D01*
X103830000Y-80564285D01*
X103877619Y-80469047D01*
X103972857Y-80421428D01*
X104210952Y-80421428D01*
X104306190Y-80373809D01*
X104782380Y-80802380D02*
X104782380Y-79802380D01*
X104877619Y-80421428D02*
X105163333Y-80802380D01*
X105163333Y-80135714D02*
X104782380Y-80516666D01*
D11*
X100044285Y-74973571D02*
X99187142Y-74973571D01*
X99615714Y-74973571D02*
X99615714Y-73473571D01*
X99472857Y-73687857D01*
X99330000Y-73830714D01*
X99187142Y-73902142D01*
X100615714Y-73616428D02*
X100687142Y-73545000D01*
X100830000Y-73473571D01*
X101187142Y-73473571D01*
X101330000Y-73545000D01*
X101401428Y-73616428D01*
X101472857Y-73759285D01*
X101472857Y-73902142D01*
X101401428Y-74116428D01*
X100544285Y-74973571D01*
X101472857Y-74973571D01*
X87130000Y-120463571D02*
X88130000Y-120463571D01*
X87487142Y-121963571D01*
X124595000Y-98873571D02*
X125523571Y-98873571D01*
X125023571Y-99445000D01*
X125237857Y-99445000D01*
X125380714Y-99516428D01*
X125452142Y-99587857D01*
X125523571Y-99730714D01*
X125523571Y-100087857D01*
X125452142Y-100230714D01*
X125380714Y-100302142D01*
X125237857Y-100373571D01*
X124809285Y-100373571D01*
X124666428Y-100302142D01*
X124595000Y-100230714D01*
X99980714Y-124273571D02*
X99695000Y-124273571D01*
X99552142Y-124345000D01*
X99480714Y-124416428D01*
X99337857Y-124630714D01*
X99266428Y-124916428D01*
X99266428Y-125487857D01*
X99337857Y-125630714D01*
X99409285Y-125702142D01*
X99552142Y-125773571D01*
X99837857Y-125773571D01*
X99980714Y-125702142D01*
X100052142Y-125630714D01*
X100123571Y-125487857D01*
X100123571Y-125130714D01*
X100052142Y-124987857D01*
X99980714Y-124916428D01*
X99837857Y-124845000D01*
X99552142Y-124845000D01*
X99409285Y-124916428D01*
X99337857Y-124987857D01*
X99266428Y-125130714D01*
X74009285Y-101008571D02*
X74295000Y-101008571D01*
X74437857Y-100937142D01*
X74509285Y-100865714D01*
X74652142Y-100651428D01*
X74723571Y-100365714D01*
X74723571Y-99794285D01*
X74652142Y-99651428D01*
X74580714Y-99580000D01*
X74437857Y-99508571D01*
X74152142Y-99508571D01*
X74009285Y-99580000D01*
X73937857Y-99651428D01*
X73866428Y-99794285D01*
X73866428Y-100151428D01*
X73937857Y-100294285D01*
X74009285Y-100365714D01*
X74152142Y-100437142D01*
X74437857Y-100437142D01*
X74580714Y-100365714D01*
X74652142Y-100294285D01*
X74723571Y-100151428D01*
X113387142Y-121098571D02*
X112672857Y-121098571D01*
X112601428Y-121812857D01*
X112672857Y-121741428D01*
X112815714Y-121670000D01*
X113172857Y-121670000D01*
X113315714Y-121741428D01*
X113387142Y-121812857D01*
X113458571Y-121955714D01*
X113458571Y-122312857D01*
X113387142Y-122455714D01*
X113315714Y-122527142D01*
X113172857Y-122598571D01*
X112815714Y-122598571D01*
X112672857Y-122527142D01*
X112601428Y-122455714D01*
X122840714Y-111438571D02*
X122840714Y-112438571D01*
X122483571Y-110867142D02*
X122126428Y-111938571D01*
X123055000Y-111938571D01*
D13*
X121932890Y-93835790D02*
X122075747Y-93883409D01*
X122313843Y-93883409D01*
X122409081Y-93835790D01*
X122456700Y-93788171D01*
X122504319Y-93692933D01*
X122504319Y-93597695D01*
X122456700Y-93502457D01*
X122409081Y-93454838D01*
X122313843Y-93407219D01*
X122123366Y-93359600D01*
X122028128Y-93311981D01*
X121980509Y-93264362D01*
X121932890Y-93169124D01*
X121932890Y-93073886D01*
X121980509Y-92978648D01*
X122028128Y-92931029D01*
X122123366Y-92883409D01*
X122361462Y-92883409D01*
X122504319Y-92931029D01*
X122837652Y-92883409D02*
X123075747Y-93883409D01*
X123266224Y-93169124D01*
X123456700Y-93883409D01*
X123694795Y-92883409D01*
X124028128Y-92978648D02*
X124075747Y-92931029D01*
X124170985Y-92883409D01*
X124409081Y-92883409D01*
X124504319Y-92931029D01*
X124551938Y-92978648D01*
X124599557Y-93073886D01*
X124599557Y-93169124D01*
X124551938Y-93311981D01*
X123980509Y-93883409D01*
X124599557Y-93883409D01*
X124912380Y-106211666D02*
X124436190Y-106545000D01*
X124912380Y-106783095D02*
X123912380Y-106783095D01*
X123912380Y-106402142D01*
X123960000Y-106306904D01*
X124007619Y-106259285D01*
X124102857Y-106211666D01*
X124245714Y-106211666D01*
X124340952Y-106259285D01*
X124388571Y-106306904D01*
X124436190Y-106402142D01*
X124436190Y-106783095D01*
X123912380Y-105878333D02*
X123912380Y-105259285D01*
X124293333Y-105592619D01*
X124293333Y-105449761D01*
X124340952Y-105354523D01*
X124388571Y-105306904D01*
X124483809Y-105259285D01*
X124721904Y-105259285D01*
X124817142Y-105306904D01*
X124864761Y-105354523D01*
X124912380Y-105449761D01*
X124912380Y-105735476D01*
X124864761Y-105830714D01*
X124817142Y-105878333D01*
X102687380Y-120181666D02*
X102211190Y-120515000D01*
X102687380Y-120753095D02*
X101687380Y-120753095D01*
X101687380Y-120372142D01*
X101735000Y-120276904D01*
X101782619Y-120229285D01*
X101877857Y-120181666D01*
X102020714Y-120181666D01*
X102115952Y-120229285D01*
X102163571Y-120276904D01*
X102211190Y-120372142D01*
X102211190Y-120753095D01*
X101782619Y-119800714D02*
X101735000Y-119753095D01*
X101687380Y-119657857D01*
X101687380Y-119419761D01*
X101735000Y-119324523D01*
X101782619Y-119276904D01*
X101877857Y-119229285D01*
X101973095Y-119229285D01*
X102115952Y-119276904D01*
X102687380Y-119848333D01*
X102687380Y-119229285D01*
X114768333Y-117927380D02*
X114435000Y-117451190D01*
X114196904Y-117927380D02*
X114196904Y-116927380D01*
X114577857Y-116927380D01*
X114673095Y-116975000D01*
X114720714Y-117022619D01*
X114768333Y-117117857D01*
X114768333Y-117260714D01*
X114720714Y-117355952D01*
X114673095Y-117403571D01*
X114577857Y-117451190D01*
X114196904Y-117451190D01*
X115720714Y-117927380D02*
X115149285Y-117927380D01*
X115435000Y-117927380D02*
X115435000Y-116927380D01*
X115339761Y-117070238D01*
X115244523Y-117165476D01*
X115149285Y-117213095D01*
X107767380Y-120181666D02*
X107291190Y-120515000D01*
X107767380Y-120753095D02*
X106767380Y-120753095D01*
X106767380Y-120372142D01*
X106815000Y-120276904D01*
X106862619Y-120229285D01*
X106957857Y-120181666D01*
X107100714Y-120181666D01*
X107195952Y-120229285D01*
X107243571Y-120276904D01*
X107291190Y-120372142D01*
X107291190Y-120753095D01*
X107100714Y-119324523D02*
X107767380Y-119324523D01*
X106719761Y-119562619D02*
X107434047Y-119800714D01*
X107434047Y-119181666D01*
X111847380Y-109981904D02*
X112656904Y-109981904D01*
X112752142Y-109934285D01*
X112799761Y-109886666D01*
X112847380Y-109791428D01*
X112847380Y-109600952D01*
X112799761Y-109505714D01*
X112752142Y-109458095D01*
X112656904Y-109410476D01*
X111847380Y-109410476D01*
X112847380Y-108410476D02*
X112847380Y-108981904D01*
X112847380Y-108696190D02*
X111847380Y-108696190D01*
X111990238Y-108791428D01*
X112085476Y-108886666D01*
X112133095Y-108981904D01*
X124991904Y-82367380D02*
X124991904Y-81367380D01*
X125230000Y-81367380D01*
X125372857Y-81415000D01*
X125468095Y-81510238D01*
X125515714Y-81605476D01*
X125563333Y-81795952D01*
X125563333Y-81938809D01*
X125515714Y-82129285D01*
X125468095Y-82224523D01*
X125372857Y-82319761D01*
X125230000Y-82367380D01*
X124991904Y-82367380D01*
X125944285Y-81462619D02*
X125991904Y-81415000D01*
X126087142Y-81367380D01*
X126325238Y-81367380D01*
X126420476Y-81415000D01*
X126468095Y-81462619D01*
X126515714Y-81557857D01*
X126515714Y-81653095D01*
X126468095Y-81795952D01*
X125896666Y-82367380D01*
X126515714Y-82367380D01*
X128801904Y-97607380D02*
X128801904Y-96607380D01*
X129040000Y-96607380D01*
X129182857Y-96655000D01*
X129278095Y-96750238D01*
X129325714Y-96845476D01*
X129373333Y-97035952D01*
X129373333Y-97178809D01*
X129325714Y-97369285D01*
X129278095Y-97464523D01*
X129182857Y-97559761D01*
X129040000Y-97607380D01*
X128801904Y-97607380D01*
X129706666Y-96607380D02*
X130325714Y-96607380D01*
X129992380Y-96988333D01*
X130135238Y-96988333D01*
X130230476Y-97035952D01*
X130278095Y-97083571D01*
X130325714Y-97178809D01*
X130325714Y-97416904D01*
X130278095Y-97512142D01*
X130230476Y-97559761D01*
X130135238Y-97607380D01*
X129849523Y-97607380D01*
X129754285Y-97559761D01*
X129706666Y-97512142D01*
X124991904Y-118562380D02*
X124991904Y-117562380D01*
X125230000Y-117562380D01*
X125372857Y-117610000D01*
X125468095Y-117705238D01*
X125515714Y-117800476D01*
X125563333Y-117990952D01*
X125563333Y-118133809D01*
X125515714Y-118324285D01*
X125468095Y-118419523D01*
X125372857Y-118514761D01*
X125230000Y-118562380D01*
X124991904Y-118562380D01*
X126420476Y-117895714D02*
X126420476Y-118562380D01*
X126182380Y-117514761D02*
X125944285Y-118229047D01*
X126563333Y-118229047D01*
X114196904Y-129992380D02*
X114196904Y-128992380D01*
X114435000Y-128992380D01*
X114577857Y-129040000D01*
X114673095Y-129135238D01*
X114720714Y-129230476D01*
X114768333Y-129420952D01*
X114768333Y-129563809D01*
X114720714Y-129754285D01*
X114673095Y-129849523D01*
X114577857Y-129944761D01*
X114435000Y-129992380D01*
X114196904Y-129992380D01*
X115673095Y-128992380D02*
X115196904Y-128992380D01*
X115149285Y-129468571D01*
X115196904Y-129420952D01*
X115292142Y-129373333D01*
X115530238Y-129373333D01*
X115625476Y-129420952D01*
X115673095Y-129468571D01*
X115720714Y-129563809D01*
X115720714Y-129801904D01*
X115673095Y-129897142D01*
X115625476Y-129944761D01*
X115530238Y-129992380D01*
X115292142Y-129992380D01*
X115196904Y-129944761D01*
X115149285Y-129897142D01*
X98956904Y-133802380D02*
X98956904Y-132802380D01*
X99195000Y-132802380D01*
X99337857Y-132850000D01*
X99433095Y-132945238D01*
X99480714Y-133040476D01*
X99528333Y-133230952D01*
X99528333Y-133373809D01*
X99480714Y-133564285D01*
X99433095Y-133659523D01*
X99337857Y-133754761D01*
X99195000Y-133802380D01*
X98956904Y-133802380D01*
X100385476Y-132802380D02*
X100195000Y-132802380D01*
X100099761Y-132850000D01*
X100052142Y-132897619D01*
X99956904Y-133040476D01*
X99909285Y-133230952D01*
X99909285Y-133611904D01*
X99956904Y-133707142D01*
X100004523Y-133754761D01*
X100099761Y-133802380D01*
X100290238Y-133802380D01*
X100385476Y-133754761D01*
X100433095Y-133707142D01*
X100480714Y-133611904D01*
X100480714Y-133373809D01*
X100433095Y-133278571D01*
X100385476Y-133230952D01*
X100290238Y-133183333D01*
X100099761Y-133183333D01*
X100004523Y-133230952D01*
X99956904Y-133278571D01*
X99909285Y-133373809D01*
X86256904Y-129357380D02*
X86256904Y-128357380D01*
X86495000Y-128357380D01*
X86637857Y-128405000D01*
X86733095Y-128500238D01*
X86780714Y-128595476D01*
X86828333Y-128785952D01*
X86828333Y-128928809D01*
X86780714Y-129119285D01*
X86733095Y-129214523D01*
X86637857Y-129309761D01*
X86495000Y-129357380D01*
X86256904Y-129357380D01*
X87161666Y-128357380D02*
X87828333Y-128357380D01*
X87399761Y-129357380D01*
X72921904Y-112847380D02*
X72921904Y-111847380D01*
X73160000Y-111847380D01*
X73302857Y-111895000D01*
X73398095Y-111990238D01*
X73445714Y-112085476D01*
X73493333Y-112275952D01*
X73493333Y-112418809D01*
X73445714Y-112609285D01*
X73398095Y-112704523D01*
X73302857Y-112799761D01*
X73160000Y-112847380D01*
X72921904Y-112847380D01*
X74064761Y-112275952D02*
X73969523Y-112228333D01*
X73921904Y-112180714D01*
X73874285Y-112085476D01*
X73874285Y-112037857D01*
X73921904Y-111942619D01*
X73969523Y-111895000D01*
X74064761Y-111847380D01*
X74255238Y-111847380D01*
X74350476Y-111895000D01*
X74398095Y-111942619D01*
X74445714Y-112037857D01*
X74445714Y-112085476D01*
X74398095Y-112180714D01*
X74350476Y-112228333D01*
X74255238Y-112275952D01*
X74064761Y-112275952D01*
X73969523Y-112323571D01*
X73921904Y-112371190D01*
X73874285Y-112466428D01*
X73874285Y-112656904D01*
X73921904Y-112752142D01*
X73969523Y-112799761D01*
X74064761Y-112847380D01*
X74255238Y-112847380D01*
X74350476Y-112799761D01*
X74398095Y-112752142D01*
X74445714Y-112656904D01*
X74445714Y-112466428D01*
X74398095Y-112371190D01*
X74350476Y-112323571D01*
X74255238Y-112275952D01*
X69111904Y-97607380D02*
X69111904Y-96607380D01*
X69350000Y-96607380D01*
X69492857Y-96655000D01*
X69588095Y-96750238D01*
X69635714Y-96845476D01*
X69683333Y-97035952D01*
X69683333Y-97178809D01*
X69635714Y-97369285D01*
X69588095Y-97464523D01*
X69492857Y-97559761D01*
X69350000Y-97607380D01*
X69111904Y-97607380D01*
X70159523Y-97607380D02*
X70350000Y-97607380D01*
X70445238Y-97559761D01*
X70492857Y-97512142D01*
X70588095Y-97369285D01*
X70635714Y-97178809D01*
X70635714Y-96797857D01*
X70588095Y-96702619D01*
X70540476Y-96655000D01*
X70445238Y-96607380D01*
X70254761Y-96607380D01*
X70159523Y-96655000D01*
X70111904Y-96702619D01*
X70064285Y-96797857D01*
X70064285Y-97035952D01*
X70111904Y-97131190D01*
X70159523Y-97178809D01*
X70254761Y-97226428D01*
X70445238Y-97226428D01*
X70540476Y-97178809D01*
X70588095Y-97131190D01*
X70635714Y-97035952D01*
X73080714Y-82367380D02*
X73080714Y-81367380D01*
X73318809Y-81367380D01*
X73461666Y-81415000D01*
X73556904Y-81510238D01*
X73604523Y-81605476D01*
X73652142Y-81795952D01*
X73652142Y-81938809D01*
X73604523Y-82129285D01*
X73556904Y-82224523D01*
X73461666Y-82319761D01*
X73318809Y-82367380D01*
X73080714Y-82367380D01*
X74604523Y-82367380D02*
X74033095Y-82367380D01*
X74318809Y-82367380D02*
X74318809Y-81367380D01*
X74223571Y-81510238D01*
X74128333Y-81605476D01*
X74033095Y-81653095D01*
X75223571Y-81367380D02*
X75318809Y-81367380D01*
X75414047Y-81415000D01*
X75461666Y-81462619D01*
X75509285Y-81557857D01*
X75556904Y-81748333D01*
X75556904Y-81986428D01*
X75509285Y-82176904D01*
X75461666Y-82272142D01*
X75414047Y-82319761D01*
X75318809Y-82367380D01*
X75223571Y-82367380D01*
X75128333Y-82319761D01*
X75080714Y-82272142D01*
X75033095Y-82176904D01*
X74985476Y-81986428D01*
X74985476Y-81748333D01*
X75033095Y-81557857D01*
X75080714Y-81462619D01*
X75128333Y-81415000D01*
X75223571Y-81367380D01*
X83875714Y-72482380D02*
X83875714Y-71482380D01*
X84113809Y-71482380D01*
X84256666Y-71530000D01*
X84351904Y-71625238D01*
X84399523Y-71720476D01*
X84447142Y-71910952D01*
X84447142Y-72053809D01*
X84399523Y-72244285D01*
X84351904Y-72339523D01*
X84256666Y-72434761D01*
X84113809Y-72482380D01*
X83875714Y-72482380D01*
X85399523Y-72482380D02*
X84828095Y-72482380D01*
X85113809Y-72482380D02*
X85113809Y-71482380D01*
X85018571Y-71625238D01*
X84923333Y-71720476D01*
X84828095Y-71768095D01*
X86351904Y-72482380D02*
X85780476Y-72482380D01*
X86066190Y-72482380D02*
X86066190Y-71482380D01*
X85970952Y-71625238D01*
X85875714Y-71720476D01*
X85780476Y-71768095D01*
X98480714Y-67127380D02*
X98480714Y-66127380D01*
X98718809Y-66127380D01*
X98861666Y-66175000D01*
X98956904Y-66270238D01*
X99004523Y-66365476D01*
X99052142Y-66555952D01*
X99052142Y-66698809D01*
X99004523Y-66889285D01*
X98956904Y-66984523D01*
X98861666Y-67079761D01*
X98718809Y-67127380D01*
X98480714Y-67127380D01*
X100004523Y-67127380D02*
X99433095Y-67127380D01*
X99718809Y-67127380D02*
X99718809Y-66127380D01*
X99623571Y-66270238D01*
X99528333Y-66365476D01*
X99433095Y-66413095D01*
X100385476Y-66222619D02*
X100433095Y-66175000D01*
X100528333Y-66127380D01*
X100766428Y-66127380D01*
X100861666Y-66175000D01*
X100909285Y-66222619D01*
X100956904Y-66317857D01*
X100956904Y-66413095D01*
X100909285Y-66555952D01*
X100337857Y-67127380D01*
X100956904Y-67127380D01*
X85479047Y-108513571D02*
X85621904Y-108561190D01*
X85669523Y-108608809D01*
X85717142Y-108704047D01*
X85717142Y-108846904D01*
X85669523Y-108942142D01*
X85621904Y-108989761D01*
X85526666Y-109037380D01*
X85145714Y-109037380D01*
X85145714Y-108037380D01*
X85479047Y-108037380D01*
X85574285Y-108085000D01*
X85621904Y-108132619D01*
X85669523Y-108227857D01*
X85669523Y-108323095D01*
X85621904Y-108418333D01*
X85574285Y-108465952D01*
X85479047Y-108513571D01*
X85145714Y-108513571D01*
X86050476Y-108037380D02*
X86717142Y-108037380D01*
X86050476Y-109037380D01*
X86717142Y-109037380D01*
X87621904Y-109037380D02*
X87050476Y-109037380D01*
X87336190Y-109037380D02*
X87336190Y-108037380D01*
X87240952Y-108180238D01*
X87145714Y-108275476D01*
X87050476Y-108323095D01*
X83891428Y-113420952D02*
X83891428Y-112659047D01*
X84272380Y-113040000D02*
X83510476Y-113040000D01*
X99631666Y-110259761D02*
X99774523Y-110307380D01*
X100012619Y-110307380D01*
X100107857Y-110259761D01*
X100155476Y-110212142D01*
X100203095Y-110116904D01*
X100203095Y-110021666D01*
X100155476Y-109926428D01*
X100107857Y-109878809D01*
X100012619Y-109831190D01*
X99822142Y-109783571D01*
X99726904Y-109735952D01*
X99679285Y-109688333D01*
X99631666Y-109593095D01*
X99631666Y-109497857D01*
X99679285Y-109402619D01*
X99726904Y-109355000D01*
X99822142Y-109307380D01*
X100060238Y-109307380D01*
X100203095Y-109355000D01*
X100536428Y-109307380D02*
X100774523Y-110307380D01*
X100965000Y-109593095D01*
X101155476Y-110307380D01*
X101393571Y-109307380D01*
X102298333Y-110307380D02*
X101726904Y-110307380D01*
X102012619Y-110307380D02*
X102012619Y-109307380D01*
X101917380Y-109450238D01*
X101822142Y-109545476D01*
X101726904Y-109593095D01*
X99544285Y-93273571D02*
X99687142Y-93321190D01*
X99734761Y-93368809D01*
X99782380Y-93464047D01*
X99782380Y-93606904D01*
X99734761Y-93702142D01*
X99687142Y-93749761D01*
X99591904Y-93797380D01*
X99210952Y-93797380D01*
X99210952Y-92797380D01*
X99544285Y-92797380D01*
X99639523Y-92845000D01*
X99687142Y-92892619D01*
X99734761Y-92987857D01*
X99734761Y-93083095D01*
X99687142Y-93178333D01*
X99639523Y-93225952D01*
X99544285Y-93273571D01*
X99210952Y-93273571D01*
X100068095Y-92797380D02*
X100639523Y-92797380D01*
X100353809Y-93797380D02*
X100353809Y-92797380D01*
X101496666Y-93797380D02*
X100925238Y-93797380D01*
X101210952Y-93797380D02*
X101210952Y-92797380D01*
X101115714Y-92940238D01*
X101020476Y-93035476D01*
X100925238Y-93083095D01*
X114196904Y-72207380D02*
X114196904Y-71207380D01*
X114435000Y-71207380D01*
X114577857Y-71255000D01*
X114673095Y-71350238D01*
X114720714Y-71445476D01*
X114768333Y-71635952D01*
X114768333Y-71778809D01*
X114720714Y-71969285D01*
X114673095Y-72064523D01*
X114577857Y-72159761D01*
X114435000Y-72207380D01*
X114196904Y-72207380D01*
X115720714Y-72207380D02*
X115149285Y-72207380D01*
X115435000Y-72207380D02*
X115435000Y-71207380D01*
X115339761Y-71350238D01*
X115244523Y-71445476D01*
X115149285Y-71493095D01*
X114033333Y-100357142D02*
X113985714Y-100404761D01*
X113842857Y-100452380D01*
X113747619Y-100452380D01*
X113604761Y-100404761D01*
X113509523Y-100309523D01*
X113461904Y-100214285D01*
X113414285Y-100023809D01*
X113414285Y-99880952D01*
X113461904Y-99690476D01*
X113509523Y-99595238D01*
X113604761Y-99500000D01*
X113747619Y-99452380D01*
X113842857Y-99452380D01*
X113985714Y-99500000D01*
X114033333Y-99547619D01*
X114985714Y-100452380D02*
X114414285Y-100452380D01*
X114700000Y-100452380D02*
X114700000Y-99452380D01*
X114604761Y-99595238D01*
X114509523Y-99690476D01*
X114414285Y-99738095D01*
D14*
X118038880Y-94030800D02*
X120770000Y-94030800D01*
X118038880Y-94030800D02*
X118038880Y-86309200D01*
X120770000Y-86309200D02*
X120770000Y-93980000D01*
X118038880Y-86309200D02*
X120770000Y-86309200D01*
X123090000Y-102775000D02*
X123090000Y-109315000D01*
X125830000Y-102775000D02*
X125830000Y-109315000D01*
X123090000Y-109315000D02*
X123420000Y-109315000D01*
X125830000Y-109315000D02*
X125500000Y-109315000D01*
X125500000Y-102775000D02*
X125830000Y-102775000D01*
X123420000Y-102775000D02*
X123090000Y-102775000D01*
X100865000Y-123285000D02*
X100865000Y-116745000D01*
X103605000Y-123285000D02*
X103605000Y-116745000D01*
X100865000Y-116745000D02*
X101195000Y-116745000D01*
X103275000Y-123285000D02*
X103605000Y-123285000D01*
X103605000Y-116745000D02*
X103275000Y-116745000D01*
X101195000Y-123285000D02*
X100865000Y-123285000D01*
X118205000Y-116105000D02*
X111665000Y-116105000D01*
X118205000Y-118515000D02*
X118205000Y-118845000D01*
X111665000Y-116105000D02*
X111665000Y-116435000D01*
X111665000Y-118845000D02*
X111665000Y-118515000D01*
X118205000Y-116435000D02*
X118205000Y-116105000D01*
X118205000Y-118845000D02*
X111665000Y-118845000D01*
X108685000Y-116745000D02*
X108355000Y-116745000D01*
X105945000Y-123285000D02*
X105945000Y-116745000D01*
X106275000Y-123285000D02*
X105945000Y-123285000D01*
X108355000Y-123285000D02*
X108685000Y-123285000D01*
X105945000Y-116745000D02*
X106275000Y-116745000D01*
X108685000Y-123285000D02*
X108685000Y-116745000D01*
X116950000Y-104715000D02*
X115300000Y-104715000D01*
X116950000Y-114995000D02*
X116950000Y-104715000D01*
X111650000Y-104715000D02*
X111650000Y-114995000D01*
X111650000Y-114995000D02*
X116950000Y-114995000D01*
X113300000Y-104715000D02*
X111650000Y-104715000D01*
X113300000Y-104715000D02*
G75*
G03*
X115300000Y-104715000I1000000J0D01*
G01*
X124190000Y-86080000D02*
X124190000Y-86236000D01*
X124190000Y-83764000D02*
X124190000Y-83920000D01*
X127422335Y-83921392D02*
G75*
G03*
X124190000Y-83764484I-1672335J-1078608D01*
G01*
X124190000Y-86235516D02*
G75*
G03*
X127422335Y-86078608I1560000J1235516D01*
G01*
X126791130Y-83920163D02*
G75*
G03*
X124709039Y-83920000I-1041130J-1079837D01*
G01*
X124709039Y-86080000D02*
G75*
G03*
X126791130Y-86079837I1040961J1080000D01*
G01*
X128210000Y-101080000D02*
X128210000Y-101236000D01*
X128210000Y-98764000D02*
X128210000Y-98920000D01*
X130811130Y-98920163D02*
G75*
G03*
X128729039Y-98920000I-1041130J-1079837D01*
G01*
X128729039Y-101080000D02*
G75*
G03*
X130811130Y-101079837I1040961J1080000D01*
G01*
X131442335Y-98921392D02*
G75*
G03*
X128210000Y-98764484I-1672335J-1078608D01*
G01*
X128210000Y-101235516D02*
G75*
G03*
X131442335Y-101078608I1560000J1235516D01*
G01*
X124190000Y-116080000D02*
X124190000Y-116236000D01*
X124190000Y-113764000D02*
X124190000Y-113920000D01*
X126791130Y-113920163D02*
G75*
G03*
X124709039Y-113920000I-1041130J-1079837D01*
G01*
X127422335Y-113921392D02*
G75*
G03*
X124190000Y-113764484I-1672335J-1078608D01*
G01*
X124709039Y-116080000D02*
G75*
G03*
X126791130Y-116079837I1040961J1080000D01*
G01*
X124190000Y-116235516D02*
G75*
G03*
X127422335Y-116078608I1560000J1235516D01*
G01*
X113210000Y-127060000D02*
X113210000Y-127216000D01*
X113210000Y-124744000D02*
X113210000Y-124900000D01*
X115811130Y-124900163D02*
G75*
G03*
X113729039Y-124900000I-1041130J-1079837D01*
G01*
X116442335Y-124901392D02*
G75*
G03*
X113210000Y-124744484I-1672335J-1078608D01*
G01*
X113210000Y-127215516D02*
G75*
G03*
X116442335Y-127058608I1560000J1235516D01*
G01*
X113729039Y-127060000D02*
G75*
G03*
X115811130Y-127059837I1040961J1080000D01*
G01*
X98210000Y-128764000D02*
X98210000Y-128920000D01*
X98210000Y-131080000D02*
X98210000Y-131236000D01*
X98210000Y-131235516D02*
G75*
G03*
X101442335Y-131078608I1560000J1235516D01*
G01*
X98729039Y-131080000D02*
G75*
G03*
X100811130Y-131079837I1040961J1080000D01*
G01*
X101442335Y-128921392D02*
G75*
G03*
X98210000Y-128764484I-1672335J-1078608D01*
G01*
X100811130Y-128920163D02*
G75*
G03*
X98729039Y-128920000I-1041130J-1079837D01*
G01*
X85210000Y-127060000D02*
X85210000Y-127216000D01*
X85210000Y-124744000D02*
X85210000Y-124900000D01*
X85210000Y-127215516D02*
G75*
G03*
X88442335Y-127058608I1560000J1235516D01*
G01*
X85729039Y-127060000D02*
G75*
G03*
X87811130Y-127059837I1040961J1080000D01*
G01*
X88442335Y-124901392D02*
G75*
G03*
X85210000Y-124744484I-1672335J-1078608D01*
G01*
X87811130Y-124900163D02*
G75*
G03*
X85729039Y-124900000I-1041130J-1079837D01*
G01*
X72230000Y-116080000D02*
X72230000Y-116236000D01*
X72230000Y-113764000D02*
X72230000Y-113920000D01*
X75462335Y-113921392D02*
G75*
G03*
X72230000Y-113764484I-1672335J-1078608D01*
G01*
X74831130Y-113920163D02*
G75*
G03*
X72749039Y-113920000I-1041130J-1079837D01*
G01*
X72749039Y-116080000D02*
G75*
G03*
X74831130Y-116079837I1040961J1080000D01*
G01*
X72230000Y-116235516D02*
G75*
G03*
X75462335Y-116078608I1560000J1235516D01*
G01*
X68210000Y-101080000D02*
X68210000Y-101236000D01*
X68210000Y-98764000D02*
X68210000Y-98920000D01*
X70811130Y-98920163D02*
G75*
G03*
X68729039Y-98920000I-1041130J-1079837D01*
G01*
X71442335Y-98921392D02*
G75*
G03*
X68210000Y-98764484I-1672335J-1078608D01*
G01*
X68729039Y-101080000D02*
G75*
G03*
X70811130Y-101079837I1040961J1080000D01*
G01*
X68210000Y-101235516D02*
G75*
G03*
X71442335Y-101078608I1560000J1235516D01*
G01*
X72230000Y-83764000D02*
X72230000Y-83920000D01*
X72230000Y-86080000D02*
X72230000Y-86236000D01*
X72749039Y-86080000D02*
G75*
G03*
X74831130Y-86079837I1040961J1080000D01*
G01*
X72230000Y-86235516D02*
G75*
G03*
X75462335Y-86078608I1560000J1235516D01*
G01*
X75462335Y-83921392D02*
G75*
G03*
X72230000Y-83764484I-1672335J-1078608D01*
G01*
X74831130Y-83920163D02*
G75*
G03*
X72749039Y-83920000I-1041130J-1079837D01*
G01*
X83210000Y-76010000D02*
X83210000Y-76166000D01*
X83210000Y-73694000D02*
X83210000Y-73850000D01*
X83729039Y-76010000D02*
G75*
G03*
X85811130Y-76009837I1040961J1080000D01*
G01*
X85811130Y-73850163D02*
G75*
G03*
X83729039Y-73850000I-1041130J-1079837D01*
G01*
X86442335Y-73851392D02*
G75*
G03*
X83210000Y-73694484I-1672335J-1078608D01*
G01*
X83210000Y-76165516D02*
G75*
G03*
X86442335Y-76008608I1560000J1235516D01*
G01*
X98210000Y-68764000D02*
X98210000Y-68920000D01*
X98210000Y-71080000D02*
X98210000Y-71236000D01*
X98210000Y-71235516D02*
G75*
G03*
X101442335Y-71078608I1560000J1235516D01*
G01*
X98729039Y-71080000D02*
G75*
G03*
X100811130Y-71079837I1040961J1080000D01*
G01*
X100811130Y-68920163D02*
G75*
G03*
X98729039Y-68920000I-1041130J-1079837D01*
G01*
X101442335Y-68921392D02*
G75*
G03*
X98210000Y-68764484I-1672335J-1078608D01*
G01*
X92460000Y-109230000D02*
G75*
G03*
X92460000Y-109230000I-6100000J0D01*
G01*
X97540000Y-108815000D02*
X97540000Y-110315000D01*
X103290000Y-106315000D02*
X98790000Y-106315000D01*
X104540000Y-110315000D02*
X104540000Y-108815000D01*
X98790000Y-112815000D02*
X103290000Y-112815000D01*
X114880000Y-86955000D02*
X114880000Y-88505000D01*
X88980000Y-82455000D02*
X109880000Y-82455000D01*
X88980000Y-94655000D02*
X85780000Y-94655000D01*
X88980000Y-86955000D02*
X85780000Y-86955000D01*
X112330000Y-84805000D02*
X114330000Y-84805000D01*
X111680000Y-94655000D02*
X114880000Y-94655000D01*
X111680000Y-99155000D02*
X88980000Y-99155000D01*
X109880000Y-82455000D02*
X111680000Y-84255000D01*
X88980000Y-82455000D02*
X88980000Y-86955000D01*
X85780000Y-86955000D02*
X85780000Y-88505000D01*
X88980000Y-99155000D02*
X88980000Y-94655000D01*
X114880000Y-94655000D02*
X114880000Y-93105000D01*
X113330000Y-85805000D02*
X113330000Y-83805000D01*
X111680000Y-86955000D02*
X114880000Y-86955000D01*
X111680000Y-99155000D02*
X111680000Y-94655000D01*
X111680000Y-84255000D02*
X111680000Y-86955000D01*
X85780000Y-94655000D02*
X85780000Y-93105000D01*
X113210000Y-73744000D02*
X113210000Y-73900000D01*
X113210000Y-76060000D02*
X113210000Y-76216000D01*
X113210000Y-76215516D02*
G75*
G03*
X116442335Y-76058608I1560000J1235516D01*
G01*
X115811130Y-73900163D02*
G75*
G03*
X113729039Y-73900000I-1041130J-1079837D01*
G01*
X116442335Y-73901392D02*
G75*
G03*
X113210000Y-73744484I-1672335J-1078608D01*
G01*
X113729039Y-76060000D02*
G75*
G03*
X115811130Y-76059837I1040961J1080000D01*
G01*
X116740000Y-101115000D02*
X111900000Y-101115000D01*
X111900000Y-103355000D02*
X111900000Y-101115000D01*
X116740000Y-103355000D02*
X111900000Y-103355000D01*
X116740000Y-103355000D02*
X116740000Y-101115000D01*
G36*
X77621664Y-96245089D02*
G01*
X77684367Y-96281358D01*
X77727961Y-96317358D01*
X77759845Y-96355075D01*
X77781810Y-96401199D01*
X77795649Y-96462421D01*
X77803153Y-96545431D01*
X77806117Y-96656919D01*
X77806461Y-96737062D01*
X77806461Y-97032065D01*
X77640385Y-97106515D01*
X77630615Y-96783402D01*
X77626579Y-96662729D01*
X77622344Y-96575141D01*
X77617097Y-96514650D01*
X77610025Y-96475268D01*
X77600311Y-96451007D01*
X77587144Y-96435880D01*
X77582919Y-96432606D01*
X77518909Y-96407034D01*
X77454208Y-96417153D01*
X77415692Y-96444000D01*
X77400025Y-96463024D01*
X77389180Y-96487988D01*
X77382288Y-96525834D01*
X77378479Y-96583502D01*
X77376883Y-96667935D01*
X77376615Y-96755928D01*
X77376563Y-96866323D01*
X77374672Y-96944463D01*
X77368345Y-96997165D01*
X77354983Y-97031242D01*
X77331985Y-97053511D01*
X77296754Y-97070787D01*
X77249697Y-97088738D01*
X77198303Y-97108278D01*
X77204421Y-96761485D01*
X77206884Y-96636468D01*
X77209767Y-96544082D01*
X77213898Y-96477881D01*
X77220107Y-96431420D01*
X77229226Y-96398256D01*
X77242083Y-96371944D01*
X77257584Y-96348729D01*
X77332371Y-96274569D01*
X77423628Y-96231684D01*
X77522883Y-96221412D01*
X77621664Y-96245089D01*
G37*
D15*
X77621664Y-96245089D02*
X77684367Y-96281358D01*
X77727961Y-96317358D01*
X77759845Y-96355075D01*
X77781810Y-96401199D01*
X77795649Y-96462421D01*
X77803153Y-96545431D01*
X77806117Y-96656919D01*
X77806461Y-96737062D01*
X77806461Y-97032065D01*
X77640385Y-97106515D01*
X77630615Y-96783402D01*
X77626579Y-96662729D01*
X77622344Y-96575141D01*
X77617097Y-96514650D01*
X77610025Y-96475268D01*
X77600311Y-96451007D01*
X77587144Y-96435880D01*
X77582919Y-96432606D01*
X77518909Y-96407034D01*
X77454208Y-96417153D01*
X77415692Y-96444000D01*
X77400025Y-96463024D01*
X77389180Y-96487988D01*
X77382288Y-96525834D01*
X77378479Y-96583502D01*
X77376883Y-96667935D01*
X77376615Y-96755928D01*
X77376563Y-96866323D01*
X77374672Y-96944463D01*
X77368345Y-96997165D01*
X77354983Y-97031242D01*
X77331985Y-97053511D01*
X77296754Y-97070787D01*
X77249697Y-97088738D01*
X77198303Y-97108278D01*
X77204421Y-96761485D01*
X77206884Y-96636468D01*
X77209767Y-96544082D01*
X77213898Y-96477881D01*
X77220107Y-96431420D01*
X77229226Y-96398256D01*
X77242083Y-96371944D01*
X77257584Y-96348729D01*
X77332371Y-96274569D01*
X77423628Y-96231684D01*
X77522883Y-96221412D01*
X77621664Y-96245089D01*
G36*
X78509846Y-96142120D02*
G01*
X78515572Y-96221980D01*
X78522149Y-96269039D01*
X78531262Y-96289566D01*
X78544598Y-96289829D01*
X78548923Y-96287378D01*
X78606444Y-96269636D01*
X78681268Y-96270672D01*
X78757339Y-96288910D01*
X78804918Y-96312505D01*
X78853702Y-96350198D01*
X78889364Y-96392855D01*
X78913845Y-96447057D01*
X78929087Y-96519384D01*
X78937030Y-96616419D01*
X78939616Y-96744742D01*
X78939662Y-96769358D01*
X78939692Y-97045870D01*
X78878161Y-97067320D01*
X78834459Y-97081912D01*
X78810482Y-97088706D01*
X78809777Y-97088769D01*
X78807415Y-97070345D01*
X78805406Y-97019526D01*
X78803901Y-96942993D01*
X78803053Y-96847430D01*
X78802923Y-96789329D01*
X78802651Y-96674771D01*
X78801252Y-96592667D01*
X78797849Y-96536393D01*
X78791567Y-96499326D01*
X78781529Y-96474844D01*
X78766861Y-96456325D01*
X78757702Y-96447406D01*
X78694789Y-96411466D01*
X78626136Y-96408775D01*
X78563848Y-96439170D01*
X78552329Y-96450144D01*
X78535433Y-96470779D01*
X78523714Y-96495256D01*
X78516233Y-96530647D01*
X78512054Y-96584026D01*
X78510237Y-96662466D01*
X78509846Y-96770617D01*
X78509846Y-97045870D01*
X78448315Y-97067320D01*
X78404613Y-97081912D01*
X78380636Y-97088706D01*
X78379930Y-97088769D01*
X78378126Y-97070069D01*
X78376500Y-97017322D01*
X78375117Y-96935557D01*
X78374042Y-96829805D01*
X78373340Y-96705094D01*
X78373077Y-96566455D01*
X78373077Y-96031806D01*
X78500077Y-95978236D01*
X78509846Y-96142120D01*
G37*
X78509846Y-96142120D02*
X78515572Y-96221980D01*
X78522149Y-96269039D01*
X78531262Y-96289566D01*
X78544598Y-96289829D01*
X78548923Y-96287378D01*
X78606444Y-96269636D01*
X78681268Y-96270672D01*
X78757339Y-96288910D01*
X78804918Y-96312505D01*
X78853702Y-96350198D01*
X78889364Y-96392855D01*
X78913845Y-96447057D01*
X78929087Y-96519384D01*
X78937030Y-96616419D01*
X78939616Y-96744742D01*
X78939662Y-96769358D01*
X78939692Y-97045870D01*
X78878161Y-97067320D01*
X78834459Y-97081912D01*
X78810482Y-97088706D01*
X78809777Y-97088769D01*
X78807415Y-97070345D01*
X78805406Y-97019526D01*
X78803901Y-96942993D01*
X78803053Y-96847430D01*
X78802923Y-96789329D01*
X78802651Y-96674771D01*
X78801252Y-96592667D01*
X78797849Y-96536393D01*
X78791567Y-96499326D01*
X78781529Y-96474844D01*
X78766861Y-96456325D01*
X78757702Y-96447406D01*
X78694789Y-96411466D01*
X78626136Y-96408775D01*
X78563848Y-96439170D01*
X78552329Y-96450144D01*
X78535433Y-96470779D01*
X78523714Y-96495256D01*
X78516233Y-96530647D01*
X78512054Y-96584026D01*
X78510237Y-96662466D01*
X78509846Y-96770617D01*
X78509846Y-97045870D01*
X78448315Y-97067320D01*
X78404613Y-97081912D01*
X78380636Y-97088706D01*
X78379930Y-97088769D01*
X78378126Y-97070069D01*
X78376500Y-97017322D01*
X78375117Y-96935557D01*
X78374042Y-96829805D01*
X78373340Y-96705094D01*
X78373077Y-96566455D01*
X78373077Y-96031806D01*
X78500077Y-95978236D01*
X78509846Y-96142120D01*
G36*
X75706873Y-96544679D02*
G01*
X75710606Y-96480905D01*
X75715907Y-96435582D01*
X75723258Y-96403555D01*
X75733143Y-96379668D01*
X75746046Y-96358764D01*
X75751579Y-96350898D01*
X75824969Y-96276595D01*
X75917760Y-96234467D01*
X76025096Y-96222722D01*
X76118886Y-96234505D01*
X76193539Y-96271727D01*
X76259431Y-96340261D01*
X76277577Y-96365648D01*
X76297345Y-96398866D01*
X76310172Y-96434945D01*
X76317510Y-96483098D01*
X76320813Y-96552536D01*
X76321538Y-96644206D01*
X76318263Y-96769830D01*
X76306877Y-96864154D01*
X76285041Y-96934523D01*
X76250419Y-96988286D01*
X76200670Y-97032788D01*
X76197014Y-97035423D01*
X76147985Y-97062377D01*
X76088945Y-97075712D01*
X76013859Y-97079000D01*
X75891795Y-97079000D01*
X75891744Y-97197497D01*
X75890608Y-97263492D01*
X75883686Y-97302202D01*
X75865598Y-97325419D01*
X75830962Y-97344933D01*
X75822645Y-97348920D01*
X75783720Y-97367603D01*
X75753583Y-97379403D01*
X75731174Y-97380422D01*
X75715433Y-97366761D01*
X75705302Y-97334522D01*
X75699723Y-97279804D01*
X75697635Y-97198711D01*
X75697981Y-97087344D01*
X75699700Y-96941802D01*
X75700237Y-96898269D01*
X75702172Y-96748205D01*
X75703904Y-96650042D01*
X75891692Y-96650042D01*
X75892748Y-96733364D01*
X75897438Y-96787880D01*
X75908051Y-96823837D01*
X75926872Y-96851482D01*
X75939650Y-96864965D01*
X75991890Y-96904417D01*
X76038142Y-96907628D01*
X76085867Y-96875049D01*
X76087077Y-96873846D01*
X76106494Y-96848668D01*
X76118307Y-96814447D01*
X76124265Y-96761748D01*
X76126120Y-96681131D01*
X76126154Y-96663271D01*
X76121670Y-96552175D01*
X76107074Y-96475161D01*
X76080650Y-96428147D01*
X76040683Y-96407050D01*
X76017584Y-96404923D01*
X75962762Y-96414900D01*
X75925158Y-96447752D01*
X75902523Y-96507857D01*
X75892606Y-96599598D01*
X75891692Y-96650042D01*
X75703904Y-96650042D01*
X75704222Y-96632060D01*
X75706873Y-96544679D01*
G37*
X75706873Y-96544679D02*
X75710606Y-96480905D01*
X75715907Y-96435582D01*
X75723258Y-96403555D01*
X75733143Y-96379668D01*
X75746046Y-96358764D01*
X75751579Y-96350898D01*
X75824969Y-96276595D01*
X75917760Y-96234467D01*
X76025096Y-96222722D01*
X76118886Y-96234505D01*
X76193539Y-96271727D01*
X76259431Y-96340261D01*
X76277577Y-96365648D01*
X76297345Y-96398866D01*
X76310172Y-96434945D01*
X76317510Y-96483098D01*
X76320813Y-96552536D01*
X76321538Y-96644206D01*
X76318263Y-96769830D01*
X76306877Y-96864154D01*
X76285041Y-96934523D01*
X76250419Y-96988286D01*
X76200670Y-97032788D01*
X76197014Y-97035423D01*
X76147985Y-97062377D01*
X76088945Y-97075712D01*
X76013859Y-97079000D01*
X75891795Y-97079000D01*
X75891744Y-97197497D01*
X75890608Y-97263492D01*
X75883686Y-97302202D01*
X75865598Y-97325419D01*
X75830962Y-97344933D01*
X75822645Y-97348920D01*
X75783720Y-97367603D01*
X75753583Y-97379403D01*
X75731174Y-97380422D01*
X75715433Y-97366761D01*
X75705302Y-97334522D01*
X75699723Y-97279804D01*
X75697635Y-97198711D01*
X75697981Y-97087344D01*
X75699700Y-96941802D01*
X75700237Y-96898269D01*
X75702172Y-96748205D01*
X75703904Y-96650042D01*
X75891692Y-96650042D01*
X75892748Y-96733364D01*
X75897438Y-96787880D01*
X75908051Y-96823837D01*
X75926872Y-96851482D01*
X75939650Y-96864965D01*
X75991890Y-96904417D01*
X76038142Y-96907628D01*
X76085867Y-96875049D01*
X76087077Y-96873846D01*
X76106494Y-96848668D01*
X76118307Y-96814447D01*
X76124265Y-96761748D01*
X76126120Y-96681131D01*
X76126154Y-96663271D01*
X76121670Y-96552175D01*
X76107074Y-96475161D01*
X76080650Y-96428147D01*
X76040683Y-96407050D01*
X76017584Y-96404923D01*
X75962762Y-96414900D01*
X75925158Y-96447752D01*
X75902523Y-96507857D01*
X75892606Y-96599598D01*
X75891692Y-96650042D01*
X75703904Y-96650042D01*
X75704222Y-96632060D01*
X75706873Y-96544679D01*
G36*
X81745929Y-96286662D02*
G01*
X81748911Y-96338068D01*
X81751247Y-96416192D01*
X81752749Y-96514857D01*
X81753231Y-96618343D01*
X81753231Y-96968533D01*
X81691401Y-97030363D01*
X81648793Y-97068462D01*
X81611390Y-97083895D01*
X81560270Y-97082918D01*
X81539978Y-97080433D01*
X81476554Y-97073200D01*
X81424095Y-97069055D01*
X81411308Y-97068672D01*
X81368199Y-97071176D01*
X81306544Y-97077462D01*
X81282638Y-97080433D01*
X81223922Y-97085028D01*
X81184464Y-97075046D01*
X81145338Y-97044228D01*
X81131215Y-97030363D01*
X81069385Y-96968533D01*
X81069385Y-96313503D01*
X81119150Y-96290829D01*
X81162002Y-96274034D01*
X81187073Y-96268154D01*
X81193501Y-96286736D01*
X81199509Y-96338655D01*
X81204697Y-96418172D01*
X81208664Y-96519546D01*
X81210577Y-96605192D01*
X81215923Y-96942231D01*
X81262560Y-96948825D01*
X81304976Y-96944214D01*
X81325760Y-96929287D01*
X81331570Y-96901377D01*
X81336530Y-96841925D01*
X81340246Y-96758466D01*
X81342324Y-96658532D01*
X81342624Y-96607104D01*
X81342923Y-96311054D01*
X81404454Y-96289604D01*
X81448004Y-96275020D01*
X81471694Y-96268219D01*
X81472377Y-96268154D01*
X81474754Y-96286642D01*
X81477366Y-96337906D01*
X81479995Y-96415649D01*
X81482421Y-96513574D01*
X81484115Y-96605192D01*
X81489461Y-96942231D01*
X81606692Y-96942231D01*
X81612072Y-96634746D01*
X81617451Y-96327261D01*
X81674601Y-96297707D01*
X81716797Y-96277413D01*
X81741770Y-96268204D01*
X81742491Y-96268154D01*
X81745929Y-96286662D01*
G37*
X81745929Y-96286662D02*
X81748911Y-96338068D01*
X81751247Y-96416192D01*
X81752749Y-96514857D01*
X81753231Y-96618343D01*
X81753231Y-96968533D01*
X81691401Y-97030363D01*
X81648793Y-97068462D01*
X81611390Y-97083895D01*
X81560270Y-97082918D01*
X81539978Y-97080433D01*
X81476554Y-97073200D01*
X81424095Y-97069055D01*
X81411308Y-97068672D01*
X81368199Y-97071176D01*
X81306544Y-97077462D01*
X81282638Y-97080433D01*
X81223922Y-97085028D01*
X81184464Y-97075046D01*
X81145338Y-97044228D01*
X81131215Y-97030363D01*
X81069385Y-96968533D01*
X81069385Y-96313503D01*
X81119150Y-96290829D01*
X81162002Y-96274034D01*
X81187073Y-96268154D01*
X81193501Y-96286736D01*
X81199509Y-96338655D01*
X81204697Y-96418172D01*
X81208664Y-96519546D01*
X81210577Y-96605192D01*
X81215923Y-96942231D01*
X81262560Y-96948825D01*
X81304976Y-96944214D01*
X81325760Y-96929287D01*
X81331570Y-96901377D01*
X81336530Y-96841925D01*
X81340246Y-96758466D01*
X81342324Y-96658532D01*
X81342624Y-96607104D01*
X81342923Y-96311054D01*
X81404454Y-96289604D01*
X81448004Y-96275020D01*
X81471694Y-96268219D01*
X81472377Y-96268154D01*
X81474754Y-96286642D01*
X81477366Y-96337906D01*
X81479995Y-96415649D01*
X81482421Y-96513574D01*
X81484115Y-96605192D01*
X81489461Y-96942231D01*
X81606692Y-96942231D01*
X81612072Y-96634746D01*
X81617451Y-96327261D01*
X81674601Y-96297707D01*
X81716797Y-96277413D01*
X81741770Y-96268204D01*
X81742491Y-96268154D01*
X81745929Y-96286662D01*
G36*
X82237333Y-96283528D02*
G01*
X82293590Y-96309117D01*
X82337747Y-96340124D01*
X82370101Y-96374795D01*
X82392438Y-96419520D01*
X82406546Y-96480692D01*
X82414211Y-96564701D01*
X82417220Y-96677940D01*
X82417538Y-96752509D01*
X82417538Y-97043420D01*
X82367773Y-97066095D01*
X82328576Y-97082667D01*
X82309157Y-97088769D01*
X82305442Y-97070610D01*
X82302495Y-97021648D01*
X82300691Y-96950153D01*
X82300308Y-96893385D01*
X82298661Y-96811371D01*
X82294222Y-96746309D01*
X82287740Y-96706467D01*
X82282590Y-96698000D01*
X82247977Y-96706646D01*
X82193640Y-96728823D01*
X82130722Y-96758886D01*
X82070368Y-96791192D01*
X82023721Y-96820098D01*
X82001926Y-96839961D01*
X82001839Y-96840175D01*
X82003714Y-96876935D01*
X82020525Y-96912026D01*
X82050039Y-96940528D01*
X82093116Y-96950061D01*
X82129932Y-96948950D01*
X82182074Y-96948133D01*
X82209444Y-96960349D01*
X82225882Y-96992624D01*
X82227955Y-96998710D01*
X82235081Y-97044739D01*
X82216024Y-97072687D01*
X82166353Y-97086007D01*
X82112697Y-97088470D01*
X82016142Y-97070210D01*
X81966159Y-97044131D01*
X81904429Y-96982868D01*
X81871690Y-96907670D01*
X81868753Y-96828211D01*
X81896424Y-96754167D01*
X81938047Y-96707769D01*
X81979604Y-96681793D01*
X82044922Y-96648907D01*
X82121038Y-96615557D01*
X82133726Y-96610461D01*
X82217333Y-96573565D01*
X82265530Y-96541046D01*
X82281030Y-96508718D01*
X82266550Y-96472394D01*
X82241692Y-96444000D01*
X82182939Y-96409039D01*
X82118293Y-96406417D01*
X82059008Y-96433358D01*
X82016339Y-96487088D01*
X82010739Y-96500950D01*
X81978133Y-96551936D01*
X81930530Y-96589787D01*
X81870461Y-96620850D01*
X81870461Y-96532768D01*
X81873997Y-96478951D01*
X81889156Y-96436534D01*
X81922768Y-96391279D01*
X81955035Y-96356420D01*
X82005209Y-96307062D01*
X82044193Y-96280547D01*
X82086064Y-96269911D01*
X82133460Y-96268154D01*
X82237333Y-96283528D01*
G37*
X82237333Y-96283528D02*
X82293590Y-96309117D01*
X82337747Y-96340124D01*
X82370101Y-96374795D01*
X82392438Y-96419520D01*
X82406546Y-96480692D01*
X82414211Y-96564701D01*
X82417220Y-96677940D01*
X82417538Y-96752509D01*
X82417538Y-97043420D01*
X82367773Y-97066095D01*
X82328576Y-97082667D01*
X82309157Y-97088769D01*
X82305442Y-97070610D01*
X82302495Y-97021648D01*
X82300691Y-96950153D01*
X82300308Y-96893385D01*
X82298661Y-96811371D01*
X82294222Y-96746309D01*
X82287740Y-96706467D01*
X82282590Y-96698000D01*
X82247977Y-96706646D01*
X82193640Y-96728823D01*
X82130722Y-96758886D01*
X82070368Y-96791192D01*
X82023721Y-96820098D01*
X82001926Y-96839961D01*
X82001839Y-96840175D01*
X82003714Y-96876935D01*
X82020525Y-96912026D01*
X82050039Y-96940528D01*
X82093116Y-96950061D01*
X82129932Y-96948950D01*
X82182074Y-96948133D01*
X82209444Y-96960349D01*
X82225882Y-96992624D01*
X82227955Y-96998710D01*
X82235081Y-97044739D01*
X82216024Y-97072687D01*
X82166353Y-97086007D01*
X82112697Y-97088470D01*
X82016142Y-97070210D01*
X81966159Y-97044131D01*
X81904429Y-96982868D01*
X81871690Y-96907670D01*
X81868753Y-96828211D01*
X81896424Y-96754167D01*
X81938047Y-96707769D01*
X81979604Y-96681793D01*
X82044922Y-96648907D01*
X82121038Y-96615557D01*
X82133726Y-96610461D01*
X82217333Y-96573565D01*
X82265530Y-96541046D01*
X82281030Y-96508718D01*
X82266550Y-96472394D01*
X82241692Y-96444000D01*
X82182939Y-96409039D01*
X82118293Y-96406417D01*
X82059008Y-96433358D01*
X82016339Y-96487088D01*
X82010739Y-96500950D01*
X81978133Y-96551936D01*
X81930530Y-96589787D01*
X81870461Y-96620850D01*
X81870461Y-96532768D01*
X81873997Y-96478951D01*
X81889156Y-96436534D01*
X81922768Y-96391279D01*
X81955035Y-96356420D01*
X82005209Y-96307062D01*
X82044193Y-96280547D01*
X82086064Y-96269911D01*
X82133460Y-96268154D01*
X82237333Y-96283528D01*
G36*
X76484778Y-96391055D02*
G01*
X76530421Y-96325215D01*
X76612802Y-96258681D01*
X76703546Y-96225676D01*
X76796185Y-96223573D01*
X76884254Y-96249745D01*
X76961286Y-96301567D01*
X77020816Y-96376412D01*
X77056378Y-96471654D01*
X77063571Y-96541756D01*
X77062754Y-96571009D01*
X77055914Y-96593407D01*
X77037112Y-96613474D01*
X77000408Y-96635733D01*
X76939862Y-96664709D01*
X76849534Y-96704927D01*
X76849077Y-96705129D01*
X76765933Y-96743210D01*
X76697753Y-96777025D01*
X76651505Y-96802933D01*
X76634158Y-96817295D01*
X76634154Y-96817411D01*
X76649443Y-96848685D01*
X76685196Y-96883157D01*
X76726242Y-96907990D01*
X76747037Y-96912923D01*
X76803770Y-96895862D01*
X76852627Y-96853133D01*
X76876465Y-96806155D01*
X76899397Y-96771522D01*
X76944318Y-96732081D01*
X76997123Y-96698009D01*
X77043710Y-96679480D01*
X77053452Y-96678462D01*
X77064418Y-96695215D01*
X77065079Y-96738039D01*
X77057020Y-96795781D01*
X77041827Y-96857289D01*
X77021086Y-96911409D01*
X77020038Y-96913510D01*
X76957621Y-97000660D01*
X76876726Y-97059939D01*
X76784856Y-97089034D01*
X76689513Y-97085634D01*
X76598198Y-97047428D01*
X76594138Y-97044741D01*
X76522306Y-96979642D01*
X76475073Y-96894705D01*
X76448934Y-96783021D01*
X76445426Y-96751643D01*
X76439213Y-96603536D01*
X76446661Y-96534468D01*
X76634154Y-96534468D01*
X76636590Y-96577552D01*
X76649914Y-96590126D01*
X76683132Y-96580719D01*
X76735494Y-96558483D01*
X76794024Y-96530610D01*
X76795479Y-96529872D01*
X76845089Y-96503777D01*
X76865000Y-96486363D01*
X76860090Y-96468107D01*
X76839416Y-96444120D01*
X76786819Y-96409406D01*
X76730177Y-96406856D01*
X76679369Y-96432119D01*
X76644276Y-96480847D01*
X76634154Y-96534468D01*
X76446661Y-96534468D01*
X76451992Y-96485036D01*
X76484778Y-96391055D01*
G37*
X76484778Y-96391055D02*
X76530421Y-96325215D01*
X76612802Y-96258681D01*
X76703546Y-96225676D01*
X76796185Y-96223573D01*
X76884254Y-96249745D01*
X76961286Y-96301567D01*
X77020816Y-96376412D01*
X77056378Y-96471654D01*
X77063571Y-96541756D01*
X77062754Y-96571009D01*
X77055914Y-96593407D01*
X77037112Y-96613474D01*
X77000408Y-96635733D01*
X76939862Y-96664709D01*
X76849534Y-96704927D01*
X76849077Y-96705129D01*
X76765933Y-96743210D01*
X76697753Y-96777025D01*
X76651505Y-96802933D01*
X76634158Y-96817295D01*
X76634154Y-96817411D01*
X76649443Y-96848685D01*
X76685196Y-96883157D01*
X76726242Y-96907990D01*
X76747037Y-96912923D01*
X76803770Y-96895862D01*
X76852627Y-96853133D01*
X76876465Y-96806155D01*
X76899397Y-96771522D01*
X76944318Y-96732081D01*
X76997123Y-96698009D01*
X77043710Y-96679480D01*
X77053452Y-96678462D01*
X77064418Y-96695215D01*
X77065079Y-96738039D01*
X77057020Y-96795781D01*
X77041827Y-96857289D01*
X77021086Y-96911409D01*
X77020038Y-96913510D01*
X76957621Y-97000660D01*
X76876726Y-97059939D01*
X76784856Y-97089034D01*
X76689513Y-97085634D01*
X76598198Y-97047428D01*
X76594138Y-97044741D01*
X76522306Y-96979642D01*
X76475073Y-96894705D01*
X76448934Y-96783021D01*
X76445426Y-96751643D01*
X76439213Y-96603536D01*
X76446661Y-96534468D01*
X76634154Y-96534468D01*
X76636590Y-96577552D01*
X76649914Y-96590126D01*
X76683132Y-96580719D01*
X76735494Y-96558483D01*
X76794024Y-96530610D01*
X76795479Y-96529872D01*
X76845089Y-96503777D01*
X76865000Y-96486363D01*
X76860090Y-96468107D01*
X76839416Y-96444120D01*
X76786819Y-96409406D01*
X76730177Y-96406856D01*
X76679369Y-96432119D01*
X76644276Y-96480847D01*
X76634154Y-96534468D01*
X76446661Y-96534468D01*
X76451992Y-96485036D01*
X76484778Y-96391055D01*
G36*
X82920807Y-96286782D02*
G01*
X82944161Y-96296988D01*
X82999902Y-96341134D01*
X83047569Y-96404967D01*
X83077048Y-96473087D01*
X83081846Y-96506670D01*
X83065760Y-96553556D01*
X83030475Y-96578365D01*
X82992644Y-96593387D01*
X82975321Y-96596155D01*
X82966886Y-96576066D01*
X82950230Y-96532351D01*
X82942923Y-96512598D01*
X82901948Y-96444271D01*
X82842622Y-96410191D01*
X82766552Y-96411239D01*
X82760918Y-96412581D01*
X82720305Y-96431836D01*
X82690448Y-96469375D01*
X82670055Y-96529809D01*
X82657836Y-96617751D01*
X82652500Y-96737813D01*
X82652000Y-96801698D01*
X82651752Y-96902403D01*
X82650126Y-96971054D01*
X82645801Y-97014673D01*
X82637454Y-97040282D01*
X82623765Y-97054903D01*
X82603411Y-97065558D01*
X82602234Y-97066095D01*
X82563038Y-97082667D01*
X82543619Y-97088769D01*
X82540635Y-97070319D01*
X82538081Y-97019323D01*
X82536140Y-96942308D01*
X82534997Y-96845805D01*
X82534769Y-96775184D01*
X82535932Y-96638525D01*
X82540479Y-96534851D01*
X82549999Y-96458108D01*
X82566081Y-96402246D01*
X82590313Y-96361212D01*
X82624286Y-96328954D01*
X82657833Y-96306440D01*
X82738499Y-96276476D01*
X82832381Y-96269718D01*
X82920807Y-96286782D01*
G37*
X82920807Y-96286782D02*
X82944161Y-96296988D01*
X82999902Y-96341134D01*
X83047569Y-96404967D01*
X83077048Y-96473087D01*
X83081846Y-96506670D01*
X83065760Y-96553556D01*
X83030475Y-96578365D01*
X82992644Y-96593387D01*
X82975321Y-96596155D01*
X82966886Y-96576066D01*
X82950230Y-96532351D01*
X82942923Y-96512598D01*
X82901948Y-96444271D01*
X82842622Y-96410191D01*
X82766552Y-96411239D01*
X82760918Y-96412581D01*
X82720305Y-96431836D01*
X82690448Y-96469375D01*
X82670055Y-96529809D01*
X82657836Y-96617751D01*
X82652500Y-96737813D01*
X82652000Y-96801698D01*
X82651752Y-96902403D01*
X82650126Y-96971054D01*
X82645801Y-97014673D01*
X82637454Y-97040282D01*
X82623765Y-97054903D01*
X82603411Y-97065558D01*
X82602234Y-97066095D01*
X82563038Y-97082667D01*
X82543619Y-97088769D01*
X82540635Y-97070319D01*
X82538081Y-97019323D01*
X82536140Y-96942308D01*
X82534997Y-96845805D01*
X82534769Y-96775184D01*
X82535932Y-96638525D01*
X82540479Y-96534851D01*
X82549999Y-96458108D01*
X82566081Y-96402246D01*
X82590313Y-96361212D01*
X82624286Y-96328954D01*
X82657833Y-96306440D01*
X82738499Y-96276476D01*
X82832381Y-96269718D01*
X82920807Y-96286782D01*
G36*
X79403501Y-96276303D02*
G01*
X79480060Y-96304733D01*
X79480936Y-96305279D01*
X79528285Y-96340127D01*
X79563241Y-96380852D01*
X79587825Y-96433925D01*
X79604062Y-96505814D01*
X79613975Y-96602992D01*
X79619586Y-96731928D01*
X79620077Y-96750298D01*
X79627141Y-97027287D01*
X79567695Y-97058028D01*
X79524681Y-97078802D01*
X79498710Y-97088646D01*
X79497509Y-97088769D01*
X79493014Y-97070606D01*
X79489444Y-97021612D01*
X79487248Y-96950031D01*
X79486769Y-96892068D01*
X79486758Y-96798170D01*
X79482466Y-96739203D01*
X79467503Y-96711079D01*
X79435482Y-96709706D01*
X79380014Y-96730998D01*
X79296269Y-96770136D01*
X79234689Y-96802643D01*
X79203017Y-96830845D01*
X79193706Y-96861582D01*
X79193692Y-96863104D01*
X79209057Y-96916054D01*
X79254547Y-96944660D01*
X79324166Y-96948803D01*
X79374313Y-96948084D01*
X79400754Y-96962527D01*
X79417243Y-96997218D01*
X79426733Y-97041416D01*
X79413057Y-97066493D01*
X79407907Y-97070082D01*
X79359425Y-97084496D01*
X79291531Y-97086537D01*
X79221612Y-97076983D01*
X79172068Y-97059522D01*
X79103570Y-97001364D01*
X79064634Y-96920408D01*
X79056923Y-96857160D01*
X79062807Y-96800111D01*
X79084101Y-96753542D01*
X79126265Y-96712181D01*
X79194759Y-96670755D01*
X79295044Y-96623993D01*
X79301154Y-96621350D01*
X79391490Y-96579617D01*
X79447235Y-96545391D01*
X79471129Y-96514635D01*
X79465913Y-96483311D01*
X79434328Y-96447383D01*
X79424883Y-96439116D01*
X79361617Y-96407058D01*
X79296064Y-96408407D01*
X79238972Y-96439838D01*
X79201093Y-96498024D01*
X79197574Y-96509446D01*
X79163300Y-96564837D01*
X79119809Y-96591518D01*
X79056923Y-96617960D01*
X79056923Y-96549548D01*
X79076052Y-96450110D01*
X79132831Y-96358902D01*
X79162378Y-96328389D01*
X79229542Y-96289228D01*
X79314956Y-96271500D01*
X79403501Y-96276303D01*
G37*
X79403501Y-96276303D02*
X79480060Y-96304733D01*
X79480936Y-96305279D01*
X79528285Y-96340127D01*
X79563241Y-96380852D01*
X79587825Y-96433925D01*
X79604062Y-96505814D01*
X79613975Y-96602992D01*
X79619586Y-96731928D01*
X79620077Y-96750298D01*
X79627141Y-97027287D01*
X79567695Y-97058028D01*
X79524681Y-97078802D01*
X79498710Y-97088646D01*
X79497509Y-97088769D01*
X79493014Y-97070606D01*
X79489444Y-97021612D01*
X79487248Y-96950031D01*
X79486769Y-96892068D01*
X79486758Y-96798170D01*
X79482466Y-96739203D01*
X79467503Y-96711079D01*
X79435482Y-96709706D01*
X79380014Y-96730998D01*
X79296269Y-96770136D01*
X79234689Y-96802643D01*
X79203017Y-96830845D01*
X79193706Y-96861582D01*
X79193692Y-96863104D01*
X79209057Y-96916054D01*
X79254547Y-96944660D01*
X79324166Y-96948803D01*
X79374313Y-96948084D01*
X79400754Y-96962527D01*
X79417243Y-96997218D01*
X79426733Y-97041416D01*
X79413057Y-97066493D01*
X79407907Y-97070082D01*
X79359425Y-97084496D01*
X79291531Y-97086537D01*
X79221612Y-97076983D01*
X79172068Y-97059522D01*
X79103570Y-97001364D01*
X79064634Y-96920408D01*
X79056923Y-96857160D01*
X79062807Y-96800111D01*
X79084101Y-96753542D01*
X79126265Y-96712181D01*
X79194759Y-96670755D01*
X79295044Y-96623993D01*
X79301154Y-96621350D01*
X79391490Y-96579617D01*
X79447235Y-96545391D01*
X79471129Y-96514635D01*
X79465913Y-96483311D01*
X79434328Y-96447383D01*
X79424883Y-96439116D01*
X79361617Y-96407058D01*
X79296064Y-96408407D01*
X79238972Y-96439838D01*
X79201093Y-96498024D01*
X79197574Y-96509446D01*
X79163300Y-96564837D01*
X79119809Y-96591518D01*
X79056923Y-96617960D01*
X79056923Y-96549548D01*
X79076052Y-96450110D01*
X79132831Y-96358902D01*
X79162378Y-96328389D01*
X79229542Y-96289228D01*
X79314956Y-96271500D01*
X79403501Y-96276303D01*
G36*
X80406362Y-96463577D02*
G01*
X80436528Y-96394269D01*
X80483629Y-96340211D01*
X80520312Y-96312505D01*
X80586990Y-96282572D01*
X80664272Y-96268678D01*
X80736110Y-96272397D01*
X80776308Y-96287400D01*
X80792082Y-96291670D01*
X80802550Y-96275750D01*
X80809856Y-96233089D01*
X80815385Y-96168106D01*
X80821437Y-96095732D01*
X80829844Y-96052187D01*
X80845141Y-96027287D01*
X80871864Y-96010845D01*
X80888654Y-96003564D01*
X80952154Y-95976963D01*
X80952081Y-96430289D01*
X80951833Y-96576320D01*
X80950872Y-96688655D01*
X80948794Y-96772678D01*
X80945193Y-96833769D01*
X80939665Y-96877309D01*
X80931804Y-96908679D01*
X80921207Y-96933262D01*
X80913182Y-96947294D01*
X80846728Y-97023388D01*
X80762470Y-97071084D01*
X80669249Y-97088199D01*
X80575900Y-97072546D01*
X80520312Y-97044418D01*
X80461957Y-96995760D01*
X80422186Y-96936333D01*
X80398190Y-96858507D01*
X80387161Y-96754652D01*
X80385599Y-96678462D01*
X80385809Y-96672986D01*
X80522308Y-96672986D01*
X80523141Y-96760355D01*
X80526961Y-96818192D01*
X80535746Y-96856029D01*
X80551474Y-96883398D01*
X80570266Y-96904042D01*
X80633375Y-96943890D01*
X80701137Y-96947295D01*
X80765179Y-96914025D01*
X80770164Y-96909517D01*
X80791439Y-96886067D01*
X80804779Y-96858166D01*
X80812001Y-96816641D01*
X80814923Y-96752316D01*
X80815385Y-96681200D01*
X80814383Y-96591858D01*
X80810238Y-96532258D01*
X80801236Y-96493089D01*
X80785667Y-96465040D01*
X80772902Y-96450144D01*
X80713600Y-96412575D01*
X80645301Y-96408057D01*
X80580110Y-96436753D01*
X80567528Y-96447406D01*
X80546111Y-96471063D01*
X80532744Y-96499251D01*
X80525566Y-96541245D01*
X80522719Y-96606319D01*
X80522308Y-96672986D01*
X80385809Y-96672986D01*
X80390322Y-96555765D01*
X80406362Y-96463577D01*
G37*
X80406362Y-96463577D02*
X80436528Y-96394269D01*
X80483629Y-96340211D01*
X80520312Y-96312505D01*
X80586990Y-96282572D01*
X80664272Y-96268678D01*
X80736110Y-96272397D01*
X80776308Y-96287400D01*
X80792082Y-96291670D01*
X80802550Y-96275750D01*
X80809856Y-96233089D01*
X80815385Y-96168106D01*
X80821437Y-96095732D01*
X80829844Y-96052187D01*
X80845141Y-96027287D01*
X80871864Y-96010845D01*
X80888654Y-96003564D01*
X80952154Y-95976963D01*
X80952081Y-96430289D01*
X80951833Y-96576320D01*
X80950872Y-96688655D01*
X80948794Y-96772678D01*
X80945193Y-96833769D01*
X80939665Y-96877309D01*
X80931804Y-96908679D01*
X80921207Y-96933262D01*
X80913182Y-96947294D01*
X80846728Y-97023388D01*
X80762470Y-97071084D01*
X80669249Y-97088199D01*
X80575900Y-97072546D01*
X80520312Y-97044418D01*
X80461957Y-96995760D01*
X80422186Y-96936333D01*
X80398190Y-96858507D01*
X80387161Y-96754652D01*
X80385599Y-96678462D01*
X80385809Y-96672986D01*
X80522308Y-96672986D01*
X80523141Y-96760355D01*
X80526961Y-96818192D01*
X80535746Y-96856029D01*
X80551474Y-96883398D01*
X80570266Y-96904042D01*
X80633375Y-96943890D01*
X80701137Y-96947295D01*
X80765179Y-96914025D01*
X80770164Y-96909517D01*
X80791439Y-96886067D01*
X80804779Y-96858166D01*
X80812001Y-96816641D01*
X80814923Y-96752316D01*
X80815385Y-96681200D01*
X80814383Y-96591858D01*
X80810238Y-96532258D01*
X80801236Y-96493089D01*
X80785667Y-96465040D01*
X80772902Y-96450144D01*
X80713600Y-96412575D01*
X80645301Y-96408057D01*
X80580110Y-96436753D01*
X80567528Y-96447406D01*
X80546111Y-96471063D01*
X80532744Y-96499251D01*
X80525566Y-96541245D01*
X80522719Y-96606319D01*
X80522308Y-96672986D01*
X80385809Y-96672986D01*
X80390322Y-96555765D01*
X80406362Y-96463577D01*
G36*
X74957629Y-96487906D02*
G01*
X74964322Y-96439163D01*
X74975960Y-96403288D01*
X74993853Y-96371548D01*
X74997808Y-96365648D01*
X75064267Y-96286104D01*
X75136685Y-96239929D01*
X75224849Y-96221599D01*
X75254787Y-96220703D01*
X75366886Y-96237256D01*
X75458464Y-96285409D01*
X75526049Y-96362905D01*
X75550057Y-96412727D01*
X75568738Y-96487533D01*
X75578301Y-96582052D01*
X75579208Y-96685210D01*
X75571921Y-96785935D01*
X75556903Y-96873153D01*
X75534615Y-96935791D01*
X75527765Y-96946579D01*
X75446632Y-97027105D01*
X75350266Y-97075336D01*
X75245701Y-97089450D01*
X75139968Y-97067629D01*
X75110543Y-97054547D01*
X75053241Y-97014231D01*
X75002950Y-96960775D01*
X74998197Y-96953995D01*
X74978878Y-96921321D01*
X74966108Y-96886394D01*
X74958564Y-96840414D01*
X74954924Y-96774584D01*
X74953865Y-96680105D01*
X74953846Y-96658923D01*
X74953894Y-96652182D01*
X75149231Y-96652182D01*
X75150368Y-96741349D01*
X75154841Y-96800520D01*
X75164246Y-96838741D01*
X75180176Y-96865053D01*
X75188308Y-96873846D01*
X75235058Y-96907261D01*
X75280447Y-96905737D01*
X75326340Y-96876752D01*
X75353712Y-96845809D01*
X75369923Y-96800643D01*
X75379026Y-96729420D01*
X75379651Y-96721114D01*
X75381204Y-96592037D01*
X75364965Y-96496172D01*
X75331152Y-96434107D01*
X75279984Y-96406432D01*
X75261720Y-96404923D01*
X75213760Y-96412513D01*
X75180953Y-96438808D01*
X75160895Y-96489095D01*
X75151178Y-96568664D01*
X75149231Y-96652182D01*
X74953894Y-96652182D01*
X74954574Y-96558249D01*
X74957629Y-96487906D01*
G37*
X74957629Y-96487906D02*
X74964322Y-96439163D01*
X74975960Y-96403288D01*
X74993853Y-96371548D01*
X74997808Y-96365648D01*
X75064267Y-96286104D01*
X75136685Y-96239929D01*
X75224849Y-96221599D01*
X75254787Y-96220703D01*
X75366886Y-96237256D01*
X75458464Y-96285409D01*
X75526049Y-96362905D01*
X75550057Y-96412727D01*
X75568738Y-96487533D01*
X75578301Y-96582052D01*
X75579208Y-96685210D01*
X75571921Y-96785935D01*
X75556903Y-96873153D01*
X75534615Y-96935791D01*
X75527765Y-96946579D01*
X75446632Y-97027105D01*
X75350266Y-97075336D01*
X75245701Y-97089450D01*
X75139968Y-97067629D01*
X75110543Y-97054547D01*
X75053241Y-97014231D01*
X75002950Y-96960775D01*
X74998197Y-96953995D01*
X74978878Y-96921321D01*
X74966108Y-96886394D01*
X74958564Y-96840414D01*
X74954924Y-96774584D01*
X74953865Y-96680105D01*
X74953846Y-96658923D01*
X74953894Y-96652182D01*
X75149231Y-96652182D01*
X75150368Y-96741349D01*
X75154841Y-96800520D01*
X75164246Y-96838741D01*
X75180176Y-96865053D01*
X75188308Y-96873846D01*
X75235058Y-96907261D01*
X75280447Y-96905737D01*
X75326340Y-96876752D01*
X75353712Y-96845809D01*
X75369923Y-96800643D01*
X75379026Y-96729420D01*
X75379651Y-96721114D01*
X75381204Y-96592037D01*
X75364965Y-96496172D01*
X75331152Y-96434107D01*
X75279984Y-96406432D01*
X75261720Y-96404923D01*
X75213760Y-96412513D01*
X75180953Y-96438808D01*
X75160895Y-96489095D01*
X75151178Y-96568664D01*
X75149231Y-96652182D01*
X74953894Y-96652182D01*
X74954574Y-96558249D01*
X74957629Y-96487906D01*
G36*
X79489878Y-89937776D02*
G01*
X79595612Y-89938355D01*
X79672132Y-89939922D01*
X79724372Y-89942972D01*
X79757263Y-89947996D01*
X79775737Y-89955489D01*
X79784727Y-89965944D01*
X79789163Y-89979853D01*
X79789594Y-89981654D01*
X79796333Y-90014145D01*
X79808808Y-90078252D01*
X79825719Y-90167151D01*
X79845771Y-90274019D01*
X79867664Y-90392033D01*
X79868429Y-90396178D01*
X79890359Y-90511831D01*
X79910877Y-90614014D01*
X79928659Y-90696598D01*
X79942381Y-90753456D01*
X79950718Y-90778458D01*
X79951116Y-90778901D01*
X79975677Y-90791110D01*
X80026315Y-90811456D01*
X80092095Y-90835545D01*
X80092461Y-90835674D01*
X80175317Y-90866818D01*
X80273000Y-90906491D01*
X80365077Y-90946381D01*
X80369434Y-90948353D01*
X80519407Y-91016420D01*
X80851498Y-90789639D01*
X80953374Y-90720504D01*
X81045657Y-90658697D01*
X81123003Y-90607733D01*
X81180064Y-90571127D01*
X81211495Y-90552394D01*
X81214479Y-90551004D01*
X81237321Y-90557190D01*
X81279982Y-90587035D01*
X81344128Y-90641947D01*
X81431421Y-90723334D01*
X81520535Y-90809922D01*
X81606441Y-90895247D01*
X81683327Y-90973108D01*
X81746564Y-91038697D01*
X81791523Y-91087205D01*
X81813576Y-91113825D01*
X81814396Y-91115195D01*
X81816834Y-91133463D01*
X81807650Y-91163295D01*
X81784574Y-91208721D01*
X81745337Y-91273770D01*
X81687670Y-91362470D01*
X81610795Y-91476657D01*
X81542570Y-91577162D01*
X81481582Y-91667303D01*
X81431356Y-91741849D01*
X81395416Y-91795565D01*
X81377287Y-91823218D01*
X81376146Y-91825095D01*
X81378359Y-91851590D01*
X81395138Y-91903086D01*
X81423142Y-91969851D01*
X81433122Y-91991172D01*
X81476672Y-92086159D01*
X81523134Y-92193937D01*
X81560877Y-92287192D01*
X81588073Y-92356406D01*
X81609675Y-92409006D01*
X81622158Y-92436497D01*
X81623709Y-92438616D01*
X81646668Y-92442124D01*
X81700786Y-92451738D01*
X81778868Y-92466089D01*
X81873719Y-92483807D01*
X81978143Y-92503525D01*
X82084944Y-92523874D01*
X82186926Y-92543486D01*
X82276894Y-92560991D01*
X82347653Y-92575022D01*
X82392006Y-92584209D01*
X82402885Y-92586807D01*
X82414122Y-92593218D01*
X82422605Y-92607697D01*
X82428714Y-92635133D01*
X82432832Y-92680411D01*
X82435341Y-92748420D01*
X82436621Y-92844047D01*
X82437054Y-92972180D01*
X82437077Y-93024701D01*
X82437077Y-93451845D01*
X82334500Y-93472091D01*
X82277431Y-93483070D01*
X82192269Y-93499095D01*
X82089372Y-93518233D01*
X81979096Y-93538551D01*
X81948615Y-93544132D01*
X81846855Y-93563917D01*
X81758205Y-93583373D01*
X81690108Y-93600697D01*
X81650004Y-93614088D01*
X81643323Y-93618079D01*
X81626919Y-93646342D01*
X81603399Y-93701109D01*
X81577316Y-93771588D01*
X81572142Y-93786769D01*
X81537956Y-93880896D01*
X81495523Y-93987101D01*
X81453997Y-94082473D01*
X81453792Y-94082916D01*
X81384640Y-94232525D01*
X81839512Y-94901617D01*
X81547500Y-95194116D01*
X81459180Y-95281170D01*
X81378625Y-95357909D01*
X81310360Y-95420237D01*
X81258908Y-95464056D01*
X81228794Y-95485270D01*
X81224474Y-95486616D01*
X81199111Y-95476016D01*
X81147358Y-95446547D01*
X81074868Y-95401705D01*
X80987294Y-95344984D01*
X80892612Y-95281462D01*
X80796516Y-95216668D01*
X80710837Y-95160287D01*
X80641016Y-95115788D01*
X80592494Y-95086639D01*
X80570782Y-95076308D01*
X80544293Y-95085050D01*
X80494062Y-95108087D01*
X80430451Y-95140631D01*
X80423708Y-95144249D01*
X80338046Y-95187210D01*
X80279306Y-95208279D01*
X80242772Y-95208503D01*
X80223731Y-95188928D01*
X80223620Y-95188654D01*
X80214102Y-95165472D01*
X80191403Y-95110441D01*
X80157282Y-95027822D01*
X80113500Y-94921872D01*
X80061816Y-94796852D01*
X80003992Y-94657020D01*
X79947991Y-94521637D01*
X79886447Y-94372234D01*
X79829939Y-94233832D01*
X79780161Y-94110673D01*
X79738806Y-94007002D01*
X79707568Y-93927059D01*
X79688141Y-93875088D01*
X79682154Y-93855692D01*
X79697168Y-93833443D01*
X79736439Y-93797982D01*
X79788807Y-93758887D01*
X79937941Y-93635245D01*
X80054511Y-93493522D01*
X80137118Y-93336704D01*
X80184366Y-93167775D01*
X80194857Y-92989722D01*
X80187231Y-92907539D01*
X80145682Y-92737031D01*
X80074123Y-92586459D01*
X79976995Y-92457309D01*
X79858734Y-92351064D01*
X79723780Y-92269210D01*
X79576571Y-92213232D01*
X79421544Y-92184615D01*
X79263139Y-92184844D01*
X79105794Y-92215405D01*
X78953946Y-92277782D01*
X78812035Y-92373460D01*
X78752803Y-92427572D01*
X78639203Y-92566520D01*
X78560106Y-92718361D01*
X78514986Y-92878667D01*
X78503316Y-93043012D01*
X78524569Y-93206971D01*
X78578220Y-93366118D01*
X78663740Y-93516025D01*
X78780605Y-93652267D01*
X78911193Y-93758887D01*
X78965588Y-93799642D01*
X79004014Y-93834718D01*
X79017846Y-93855726D01*
X79010603Y-93878635D01*
X78990005Y-93933365D01*
X78957746Y-94015672D01*
X78915521Y-94121315D01*
X78865023Y-94246050D01*
X78807948Y-94385636D01*
X78751854Y-94521670D01*
X78689967Y-94671201D01*
X78632644Y-94809767D01*
X78581644Y-94933107D01*
X78538727Y-95036964D01*
X78505653Y-95117080D01*
X78484181Y-95169195D01*
X78476225Y-95188654D01*
X78457429Y-95208423D01*
X78421074Y-95208365D01*
X78362479Y-95187441D01*
X78276968Y-95144613D01*
X78276292Y-95144249D01*
X78211907Y-95111012D01*
X78159861Y-95086802D01*
X78130512Y-95076404D01*
X78129217Y-95076308D01*
X78107124Y-95086855D01*
X78058348Y-95116184D01*
X77988331Y-95160827D01*
X77902514Y-95217314D01*
X77807388Y-95281462D01*
X77710540Y-95346411D01*
X77623253Y-95402896D01*
X77551181Y-95447421D01*
X77499977Y-95476490D01*
X77475526Y-95486616D01*
X77453010Y-95473307D01*
X77407742Y-95436112D01*
X77344244Y-95379128D01*
X77267039Y-95306449D01*
X77180651Y-95222171D01*
X77152399Y-95194016D01*
X76860287Y-94901416D01*
X77082631Y-94575104D01*
X77150202Y-94474897D01*
X77209507Y-94384963D01*
X77257217Y-94310510D01*
X77290007Y-94256751D01*
X77304548Y-94228894D01*
X77304974Y-94226912D01*
X77297308Y-94200655D01*
X77276689Y-94147837D01*
X77246685Y-94077310D01*
X77225625Y-94030093D01*
X77186248Y-93939694D01*
X77149165Y-93848366D01*
X77120415Y-93771200D01*
X77112605Y-93747692D01*
X77090417Y-93684916D01*
X77068727Y-93636411D01*
X77056813Y-93618079D01*
X77030523Y-93606859D01*
X76973142Y-93590954D01*
X76892118Y-93572167D01*
X76794895Y-93552299D01*
X76751385Y-93544132D01*
X76640896Y-93523829D01*
X76534916Y-93504170D01*
X76443801Y-93487088D01*
X76377908Y-93474518D01*
X76365500Y-93472091D01*
X76262923Y-93451845D01*
X76262923Y-93024701D01*
X76263153Y-92884246D01*
X76264099Y-92777979D01*
X76266141Y-92701013D01*
X76269662Y-92648460D01*
X76275043Y-92615433D01*
X76282666Y-92597045D01*
X76292912Y-92588408D01*
X76297115Y-92586807D01*
X76322470Y-92581127D01*
X76378484Y-92569795D01*
X76457964Y-92554179D01*
X76553712Y-92535647D01*
X76658533Y-92515569D01*
X76765232Y-92495312D01*
X76866613Y-92476246D01*
X76955479Y-92459739D01*
X77024637Y-92447159D01*
X77066889Y-92439875D01*
X77076290Y-92438616D01*
X77084807Y-92421763D01*
X77103660Y-92376870D01*
X77129324Y-92312430D01*
X77139123Y-92287192D01*
X77178648Y-92189686D01*
X77225192Y-92081959D01*
X77266877Y-91991172D01*
X77297550Y-91921753D01*
X77317956Y-91864710D01*
X77324768Y-91829777D01*
X77323682Y-91825095D01*
X77309285Y-91802991D01*
X77276412Y-91753831D01*
X77228590Y-91682848D01*
X77169348Y-91595278D01*
X77102215Y-91496357D01*
X77088941Y-91476830D01*
X77011046Y-91361140D01*
X76953787Y-91273044D01*
X76914881Y-91208486D01*
X76892044Y-91163411D01*
X76882994Y-91133763D01*
X76885448Y-91115485D01*
X76885511Y-91115369D01*
X76904827Y-91091361D01*
X76947551Y-91044947D01*
X77009051Y-90980937D01*
X77084698Y-90904145D01*
X77169861Y-90819382D01*
X77179465Y-90809922D01*
X77286790Y-90705989D01*
X77369615Y-90629675D01*
X77429605Y-90579571D01*
X77468423Y-90554270D01*
X77485520Y-90551004D01*
X77510473Y-90565250D01*
X77562255Y-90598156D01*
X77635520Y-90646208D01*
X77724920Y-90705890D01*
X77825111Y-90773688D01*
X77848501Y-90789639D01*
X78180593Y-91016420D01*
X78330565Y-90948353D01*
X78421770Y-90908685D01*
X78519669Y-90868791D01*
X78603831Y-90836983D01*
X78607538Y-90835674D01*
X78673369Y-90811576D01*
X78724116Y-90791200D01*
X78748842Y-90778936D01*
X78748884Y-90778901D01*
X78756729Y-90756734D01*
X78770066Y-90702217D01*
X78787570Y-90621480D01*
X78807917Y-90520650D01*
X78829782Y-90405856D01*
X78831571Y-90396178D01*
X78853504Y-90277904D01*
X78873640Y-90170542D01*
X78890680Y-90080917D01*
X78903328Y-90015851D01*
X78910284Y-89982168D01*
X78910406Y-89981654D01*
X78914639Y-89967325D01*
X78922871Y-89956507D01*
X78940033Y-89948706D01*
X78971058Y-89943429D01*
X79020878Y-89940182D01*
X79094424Y-89938472D01*
X79196629Y-89937807D01*
X79332425Y-89937693D01*
X79350000Y-89937692D01*
X79489878Y-89937776D01*
G37*
X79489878Y-89937776D02*
X79595612Y-89938355D01*
X79672132Y-89939922D01*
X79724372Y-89942972D01*
X79757263Y-89947996D01*
X79775737Y-89955489D01*
X79784727Y-89965944D01*
X79789163Y-89979853D01*
X79789594Y-89981654D01*
X79796333Y-90014145D01*
X79808808Y-90078252D01*
X79825719Y-90167151D01*
X79845771Y-90274019D01*
X79867664Y-90392033D01*
X79868429Y-90396178D01*
X79890359Y-90511831D01*
X79910877Y-90614014D01*
X79928659Y-90696598D01*
X79942381Y-90753456D01*
X79950718Y-90778458D01*
X79951116Y-90778901D01*
X79975677Y-90791110D01*
X80026315Y-90811456D01*
X80092095Y-90835545D01*
X80092461Y-90835674D01*
X80175317Y-90866818D01*
X80273000Y-90906491D01*
X80365077Y-90946381D01*
X80369434Y-90948353D01*
X80519407Y-91016420D01*
X80851498Y-90789639D01*
X80953374Y-90720504D01*
X81045657Y-90658697D01*
X81123003Y-90607733D01*
X81180064Y-90571127D01*
X81211495Y-90552394D01*
X81214479Y-90551004D01*
X81237321Y-90557190D01*
X81279982Y-90587035D01*
X81344128Y-90641947D01*
X81431421Y-90723334D01*
X81520535Y-90809922D01*
X81606441Y-90895247D01*
X81683327Y-90973108D01*
X81746564Y-91038697D01*
X81791523Y-91087205D01*
X81813576Y-91113825D01*
X81814396Y-91115195D01*
X81816834Y-91133463D01*
X81807650Y-91163295D01*
X81784574Y-91208721D01*
X81745337Y-91273770D01*
X81687670Y-91362470D01*
X81610795Y-91476657D01*
X81542570Y-91577162D01*
X81481582Y-91667303D01*
X81431356Y-91741849D01*
X81395416Y-91795565D01*
X81377287Y-91823218D01*
X81376146Y-91825095D01*
X81378359Y-91851590D01*
X81395138Y-91903086D01*
X81423142Y-91969851D01*
X81433122Y-91991172D01*
X81476672Y-92086159D01*
X81523134Y-92193937D01*
X81560877Y-92287192D01*
X81588073Y-92356406D01*
X81609675Y-92409006D01*
X81622158Y-92436497D01*
X81623709Y-92438616D01*
X81646668Y-92442124D01*
X81700786Y-92451738D01*
X81778868Y-92466089D01*
X81873719Y-92483807D01*
X81978143Y-92503525D01*
X82084944Y-92523874D01*
X82186926Y-92543486D01*
X82276894Y-92560991D01*
X82347653Y-92575022D01*
X82392006Y-92584209D01*
X82402885Y-92586807D01*
X82414122Y-92593218D01*
X82422605Y-92607697D01*
X82428714Y-92635133D01*
X82432832Y-92680411D01*
X82435341Y-92748420D01*
X82436621Y-92844047D01*
X82437054Y-92972180D01*
X82437077Y-93024701D01*
X82437077Y-93451845D01*
X82334500Y-93472091D01*
X82277431Y-93483070D01*
X82192269Y-93499095D01*
X82089372Y-93518233D01*
X81979096Y-93538551D01*
X81948615Y-93544132D01*
X81846855Y-93563917D01*
X81758205Y-93583373D01*
X81690108Y-93600697D01*
X81650004Y-93614088D01*
X81643323Y-93618079D01*
X81626919Y-93646342D01*
X81603399Y-93701109D01*
X81577316Y-93771588D01*
X81572142Y-93786769D01*
X81537956Y-93880896D01*
X81495523Y-93987101D01*
X81453997Y-94082473D01*
X81453792Y-94082916D01*
X81384640Y-94232525D01*
X81839512Y-94901617D01*
X81547500Y-95194116D01*
X81459180Y-95281170D01*
X81378625Y-95357909D01*
X81310360Y-95420237D01*
X81258908Y-95464056D01*
X81228794Y-95485270D01*
X81224474Y-95486616D01*
X81199111Y-95476016D01*
X81147358Y-95446547D01*
X81074868Y-95401705D01*
X80987294Y-95344984D01*
X80892612Y-95281462D01*
X80796516Y-95216668D01*
X80710837Y-95160287D01*
X80641016Y-95115788D01*
X80592494Y-95086639D01*
X80570782Y-95076308D01*
X80544293Y-95085050D01*
X80494062Y-95108087D01*
X80430451Y-95140631D01*
X80423708Y-95144249D01*
X80338046Y-95187210D01*
X80279306Y-95208279D01*
X80242772Y-95208503D01*
X80223731Y-95188928D01*
X80223620Y-95188654D01*
X80214102Y-95165472D01*
X80191403Y-95110441D01*
X80157282Y-95027822D01*
X80113500Y-94921872D01*
X80061816Y-94796852D01*
X80003992Y-94657020D01*
X79947991Y-94521637D01*
X79886447Y-94372234D01*
X79829939Y-94233832D01*
X79780161Y-94110673D01*
X79738806Y-94007002D01*
X79707568Y-93927059D01*
X79688141Y-93875088D01*
X79682154Y-93855692D01*
X79697168Y-93833443D01*
X79736439Y-93797982D01*
X79788807Y-93758887D01*
X79937941Y-93635245D01*
X80054511Y-93493522D01*
X80137118Y-93336704D01*
X80184366Y-93167775D01*
X80194857Y-92989722D01*
X80187231Y-92907539D01*
X80145682Y-92737031D01*
X80074123Y-92586459D01*
X79976995Y-92457309D01*
X79858734Y-92351064D01*
X79723780Y-92269210D01*
X79576571Y-92213232D01*
X79421544Y-92184615D01*
X79263139Y-92184844D01*
X79105794Y-92215405D01*
X78953946Y-92277782D01*
X78812035Y-92373460D01*
X78752803Y-92427572D01*
X78639203Y-92566520D01*
X78560106Y-92718361D01*
X78514986Y-92878667D01*
X78503316Y-93043012D01*
X78524569Y-93206971D01*
X78578220Y-93366118D01*
X78663740Y-93516025D01*
X78780605Y-93652267D01*
X78911193Y-93758887D01*
X78965588Y-93799642D01*
X79004014Y-93834718D01*
X79017846Y-93855726D01*
X79010603Y-93878635D01*
X78990005Y-93933365D01*
X78957746Y-94015672D01*
X78915521Y-94121315D01*
X78865023Y-94246050D01*
X78807948Y-94385636D01*
X78751854Y-94521670D01*
X78689967Y-94671201D01*
X78632644Y-94809767D01*
X78581644Y-94933107D01*
X78538727Y-95036964D01*
X78505653Y-95117080D01*
X78484181Y-95169195D01*
X78476225Y-95188654D01*
X78457429Y-95208423D01*
X78421074Y-95208365D01*
X78362479Y-95187441D01*
X78276968Y-95144613D01*
X78276292Y-95144249D01*
X78211907Y-95111012D01*
X78159861Y-95086802D01*
X78130512Y-95076404D01*
X78129217Y-95076308D01*
X78107124Y-95086855D01*
X78058348Y-95116184D01*
X77988331Y-95160827D01*
X77902514Y-95217314D01*
X77807388Y-95281462D01*
X77710540Y-95346411D01*
X77623253Y-95402896D01*
X77551181Y-95447421D01*
X77499977Y-95476490D01*
X77475526Y-95486616D01*
X77453010Y-95473307D01*
X77407742Y-95436112D01*
X77344244Y-95379128D01*
X77267039Y-95306449D01*
X77180651Y-95222171D01*
X77152399Y-95194016D01*
X76860287Y-94901416D01*
X77082631Y-94575104D01*
X77150202Y-94474897D01*
X77209507Y-94384963D01*
X77257217Y-94310510D01*
X77290007Y-94256751D01*
X77304548Y-94228894D01*
X77304974Y-94226912D01*
X77297308Y-94200655D01*
X77276689Y-94147837D01*
X77246685Y-94077310D01*
X77225625Y-94030093D01*
X77186248Y-93939694D01*
X77149165Y-93848366D01*
X77120415Y-93771200D01*
X77112605Y-93747692D01*
X77090417Y-93684916D01*
X77068727Y-93636411D01*
X77056813Y-93618079D01*
X77030523Y-93606859D01*
X76973142Y-93590954D01*
X76892118Y-93572167D01*
X76794895Y-93552299D01*
X76751385Y-93544132D01*
X76640896Y-93523829D01*
X76534916Y-93504170D01*
X76443801Y-93487088D01*
X76377908Y-93474518D01*
X76365500Y-93472091D01*
X76262923Y-93451845D01*
X76262923Y-93024701D01*
X76263153Y-92884246D01*
X76264099Y-92777979D01*
X76266141Y-92701013D01*
X76269662Y-92648460D01*
X76275043Y-92615433D01*
X76282666Y-92597045D01*
X76292912Y-92588408D01*
X76297115Y-92586807D01*
X76322470Y-92581127D01*
X76378484Y-92569795D01*
X76457964Y-92554179D01*
X76553712Y-92535647D01*
X76658533Y-92515569D01*
X76765232Y-92495312D01*
X76866613Y-92476246D01*
X76955479Y-92459739D01*
X77024637Y-92447159D01*
X77066889Y-92439875D01*
X77076290Y-92438616D01*
X77084807Y-92421763D01*
X77103660Y-92376870D01*
X77129324Y-92312430D01*
X77139123Y-92287192D01*
X77178648Y-92189686D01*
X77225192Y-92081959D01*
X77266877Y-91991172D01*
X77297550Y-91921753D01*
X77317956Y-91864710D01*
X77324768Y-91829777D01*
X77323682Y-91825095D01*
X77309285Y-91802991D01*
X77276412Y-91753831D01*
X77228590Y-91682848D01*
X77169348Y-91595278D01*
X77102215Y-91496357D01*
X77088941Y-91476830D01*
X77011046Y-91361140D01*
X76953787Y-91273044D01*
X76914881Y-91208486D01*
X76892044Y-91163411D01*
X76882994Y-91133763D01*
X76885448Y-91115485D01*
X76885511Y-91115369D01*
X76904827Y-91091361D01*
X76947551Y-91044947D01*
X77009051Y-90980937D01*
X77084698Y-90904145D01*
X77169861Y-90819382D01*
X77179465Y-90809922D01*
X77286790Y-90705989D01*
X77369615Y-90629675D01*
X77429605Y-90579571D01*
X77468423Y-90554270D01*
X77485520Y-90551004D01*
X77510473Y-90565250D01*
X77562255Y-90598156D01*
X77635520Y-90646208D01*
X77724920Y-90705890D01*
X77825111Y-90773688D01*
X77848501Y-90789639D01*
X78180593Y-91016420D01*
X78330565Y-90948353D01*
X78421770Y-90908685D01*
X78519669Y-90868791D01*
X78603831Y-90836983D01*
X78607538Y-90835674D01*
X78673369Y-90811576D01*
X78724116Y-90791200D01*
X78748842Y-90778936D01*
X78748884Y-90778901D01*
X78756729Y-90756734D01*
X78770066Y-90702217D01*
X78787570Y-90621480D01*
X78807917Y-90520650D01*
X78829782Y-90405856D01*
X78831571Y-90396178D01*
X78853504Y-90277904D01*
X78873640Y-90170542D01*
X78890680Y-90080917D01*
X78903328Y-90015851D01*
X78910284Y-89982168D01*
X78910406Y-89981654D01*
X78914639Y-89967325D01*
X78922871Y-89956507D01*
X78940033Y-89948706D01*
X78971058Y-89943429D01*
X79020878Y-89940182D01*
X79094424Y-89938472D01*
X79196629Y-89937807D01*
X79332425Y-89937693D01*
X79350000Y-89937692D01*
X79489878Y-89937776D01*
G36*
X83211032Y-96470710D02*
G01*
X83229460Y-96405167D01*
X83259360Y-96356912D01*
X83303080Y-96318767D01*
X83322141Y-96306440D01*
X83408726Y-96274336D01*
X83503522Y-96272316D01*
X83595224Y-96297838D01*
X83672528Y-96348361D01*
X83709814Y-96393590D01*
X83739353Y-96475663D01*
X83741699Y-96540607D01*
X83736385Y-96627445D01*
X83536115Y-96715103D01*
X83438739Y-96759887D01*
X83375113Y-96795913D01*
X83342029Y-96827117D01*
X83336280Y-96857436D01*
X83354658Y-96890805D01*
X83374923Y-96912923D01*
X83433889Y-96948393D01*
X83498024Y-96950879D01*
X83556926Y-96923235D01*
X83600197Y-96868320D01*
X83607936Y-96848928D01*
X83645006Y-96788364D01*
X83687654Y-96762552D01*
X83746154Y-96740471D01*
X83746154Y-96824184D01*
X83740982Y-96881150D01*
X83720723Y-96929189D01*
X83678262Y-96984346D01*
X83671951Y-96991514D01*
X83624720Y-97040585D01*
X83584121Y-97066920D01*
X83533328Y-97079035D01*
X83491220Y-97083003D01*
X83415902Y-97083991D01*
X83362286Y-97071466D01*
X83328838Y-97052869D01*
X83276268Y-97011975D01*
X83239879Y-96967748D01*
X83216850Y-96912126D01*
X83204359Y-96837047D01*
X83199587Y-96734449D01*
X83199206Y-96682376D01*
X83200501Y-96619948D01*
X83318471Y-96619948D01*
X83319839Y-96653438D01*
X83323249Y-96658923D01*
X83345753Y-96651472D01*
X83394182Y-96631753D01*
X83458908Y-96603718D01*
X83472443Y-96597692D01*
X83554244Y-96556096D01*
X83599312Y-96519538D01*
X83609217Y-96485296D01*
X83585526Y-96450648D01*
X83565960Y-96435339D01*
X83495360Y-96404721D01*
X83429280Y-96409780D01*
X83373959Y-96447151D01*
X83335636Y-96513473D01*
X83323349Y-96566116D01*
X83318471Y-96619948D01*
X83200501Y-96619948D01*
X83201730Y-96560720D01*
X83211032Y-96470710D01*
G37*
X83211032Y-96470710D02*
X83229460Y-96405167D01*
X83259360Y-96356912D01*
X83303080Y-96318767D01*
X83322141Y-96306440D01*
X83408726Y-96274336D01*
X83503522Y-96272316D01*
X83595224Y-96297838D01*
X83672528Y-96348361D01*
X83709814Y-96393590D01*
X83739353Y-96475663D01*
X83741699Y-96540607D01*
X83736385Y-96627445D01*
X83536115Y-96715103D01*
X83438739Y-96759887D01*
X83375113Y-96795913D01*
X83342029Y-96827117D01*
X83336280Y-96857436D01*
X83354658Y-96890805D01*
X83374923Y-96912923D01*
X83433889Y-96948393D01*
X83498024Y-96950879D01*
X83556926Y-96923235D01*
X83600197Y-96868320D01*
X83607936Y-96848928D01*
X83645006Y-96788364D01*
X83687654Y-96762552D01*
X83746154Y-96740471D01*
X83746154Y-96824184D01*
X83740982Y-96881150D01*
X83720723Y-96929189D01*
X83678262Y-96984346D01*
X83671951Y-96991514D01*
X83624720Y-97040585D01*
X83584121Y-97066920D01*
X83533328Y-97079035D01*
X83491220Y-97083003D01*
X83415902Y-97083991D01*
X83362286Y-97071466D01*
X83328838Y-97052869D01*
X83276268Y-97011975D01*
X83239879Y-96967748D01*
X83216850Y-96912126D01*
X83204359Y-96837047D01*
X83199587Y-96734449D01*
X83199206Y-96682376D01*
X83200501Y-96619948D01*
X83318471Y-96619948D01*
X83319839Y-96653438D01*
X83323249Y-96658923D01*
X83345753Y-96651472D01*
X83394182Y-96631753D01*
X83458908Y-96603718D01*
X83472443Y-96597692D01*
X83554244Y-96556096D01*
X83599312Y-96519538D01*
X83609217Y-96485296D01*
X83585526Y-96450648D01*
X83565960Y-96435339D01*
X83495360Y-96404721D01*
X83429280Y-96409780D01*
X83373959Y-96447151D01*
X83335636Y-96513473D01*
X83323349Y-96566116D01*
X83318471Y-96619948D01*
X83200501Y-96619948D01*
X83201730Y-96560720D01*
X83211032Y-96470710D01*
G36*
X80063362Y-96274670D02*
G01*
X80152117Y-96307421D01*
X80224022Y-96365350D01*
X80252144Y-96406128D01*
X80282802Y-96480954D01*
X80282165Y-96535058D01*
X80249987Y-96571446D01*
X80238081Y-96577633D01*
X80186675Y-96596925D01*
X80160422Y-96591982D01*
X80151530Y-96559587D01*
X80151077Y-96541692D01*
X80134797Y-96475859D01*
X80092365Y-96429807D01*
X80033388Y-96407564D01*
X79967475Y-96413161D01*
X79913895Y-96442229D01*
X79895798Y-96458810D01*
X79882971Y-96478925D01*
X79874306Y-96509332D01*
X79868696Y-96556788D01*
X79865035Y-96628050D01*
X79862215Y-96729875D01*
X79861484Y-96762115D01*
X79858820Y-96872410D01*
X79855792Y-96950036D01*
X79851250Y-97001396D01*
X79844046Y-97032890D01*
X79833033Y-97050920D01*
X79817060Y-97061888D01*
X79806834Y-97066733D01*
X79763406Y-97083301D01*
X79737842Y-97088769D01*
X79729395Y-97070507D01*
X79724239Y-97015296D01*
X79722346Y-96922499D01*
X79723689Y-96791478D01*
X79724107Y-96771269D01*
X79727058Y-96651733D01*
X79730548Y-96564449D01*
X79735514Y-96502591D01*
X79742893Y-96459336D01*
X79753624Y-96427860D01*
X79768645Y-96401339D01*
X79776502Y-96389975D01*
X79821553Y-96339692D01*
X79871940Y-96300581D01*
X79878108Y-96297167D01*
X79968458Y-96270212D01*
X80063362Y-96274670D01*
G37*
X80063362Y-96274670D02*
X80152117Y-96307421D01*
X80224022Y-96365350D01*
X80252144Y-96406128D01*
X80282802Y-96480954D01*
X80282165Y-96535058D01*
X80249987Y-96571446D01*
X80238081Y-96577633D01*
X80186675Y-96596925D01*
X80160422Y-96591982D01*
X80151530Y-96559587D01*
X80151077Y-96541692D01*
X80134797Y-96475859D01*
X80092365Y-96429807D01*
X80033388Y-96407564D01*
X79967475Y-96413161D01*
X79913895Y-96442229D01*
X79895798Y-96458810D01*
X79882971Y-96478925D01*
X79874306Y-96509332D01*
X79868696Y-96556788D01*
X79865035Y-96628050D01*
X79862215Y-96729875D01*
X79861484Y-96762115D01*
X79858820Y-96872410D01*
X79855792Y-96950036D01*
X79851250Y-97001396D01*
X79844046Y-97032890D01*
X79833033Y-97050920D01*
X79817060Y-97061888D01*
X79806834Y-97066733D01*
X79763406Y-97083301D01*
X79737842Y-97088769D01*
X79729395Y-97070507D01*
X79724239Y-97015296D01*
X79722346Y-96922499D01*
X79723689Y-96791478D01*
X79724107Y-96771269D01*
X79727058Y-96651733D01*
X79730548Y-96564449D01*
X79735514Y-96502591D01*
X79742893Y-96459336D01*
X79753624Y-96427860D01*
X79768645Y-96401339D01*
X79776502Y-96389975D01*
X79821553Y-96339692D01*
X79871940Y-96300581D01*
X79878108Y-96297167D01*
X79968458Y-96270212D01*
X80063362Y-96274670D01*
%LPC*%
D16*
X119380000Y-87630000D03*
D17*
X119380000Y-90170000D03*
X119380000Y-92710000D03*
D18*
X124460000Y-102235000D03*
D19*
X124460000Y-109855000D03*
D18*
X102235000Y-123825000D03*
D19*
X102235000Y-116205000D03*
D18*
X118745000Y-117475000D03*
D19*
X111125000Y-117475000D03*
D18*
X107315000Y-123825000D03*
D19*
X107315000Y-116205000D03*
D20*
X110490000Y-106045000D03*
D19*
X110490000Y-108585000D03*
X110490000Y-111125000D03*
X110490000Y-113665000D03*
X118110000Y-113665000D03*
X118110000Y-111125000D03*
X118110000Y-108585000D03*
X118110000Y-106045000D03*
D21*
X124480000Y-85000000D03*
D22*
X127020000Y-85000000D03*
D21*
X128500000Y-100000000D03*
D22*
X131040000Y-100000000D03*
D21*
X124480000Y-115000000D03*
D22*
X127020000Y-115000000D03*
D21*
X113500000Y-125980000D03*
D22*
X116040000Y-125980000D03*
D21*
X98500000Y-130000000D03*
D22*
X101040000Y-130000000D03*
D21*
X85500000Y-125980000D03*
D22*
X88040000Y-125980000D03*
D21*
X72520000Y-115000000D03*
D22*
X75060000Y-115000000D03*
D21*
X68500000Y-100000000D03*
D22*
X71040000Y-100000000D03*
D21*
X72520000Y-85000000D03*
D22*
X75060000Y-85000000D03*
D21*
X83500000Y-74930000D03*
D22*
X86040000Y-74930000D03*
D21*
X98500000Y-70000000D03*
D22*
X101040000Y-70000000D03*
D23*
X86360000Y-113030000D03*
D24*
X86360000Y-105430000D03*
X104290000Y-107315000D03*
X97790000Y-107315000D03*
X104290000Y-111815000D03*
X97790000Y-111815000D03*
D25*
X114980000Y-90805000D03*
X85680000Y-90805000D03*
D21*
X113500000Y-74980000D03*
D22*
X116040000Y-74980000D03*
D26*
X115570000Y-102235000D03*
X113070000Y-102235000D03*
M02*
