M48
; DRILL file {KiCad 6.0.5-a6ca702e91~116~ubuntu20.04.1} date nedjelja, 19. lipnja 2022. 21:19:37 CEST
; FORMAT={-:-/ absolute / metric / decimal}
; #@! TF.CreationDate,2022-06-19T21:19:37+02:00
; #@! TF.GenerationSoftware,Kicad,Pcbnew,6.0.5-a6ca702e91~116~ubuntu20.04.1
; #@! TF.FileFunction,Plated,1,2,PTH
FMAT,2
METRIC
; #@! TA.AperFunction,Plated,PTH,ComponentDrill
T1C0.700
; #@! TA.AperFunction,Plated,PTH,ComponentDrill
T2C0.800
; #@! TA.AperFunction,Plated,PTH,ComponentDrill
T3C0.813
; #@! TA.AperFunction,Plated,PTH,ComponentDrill
T4C0.900
; #@! TA.AperFunction,Plated,PTH,ComponentDrill
T5C1.000
; #@! TA.AperFunction,Plated,PTH,ComponentDrill
T6C1.100
%
G90
G05
T1
X113.07Y-102.235
X115.57Y-102.235
T2
X102.235Y-116.205
X102.235Y-123.825
X107.315Y-116.205
X107.315Y-123.825
X110.49Y-106.045
X110.49Y-108.585
X110.49Y-111.125
X110.49Y-113.665
X111.125Y-117.475
X118.11Y-106.045
X118.11Y-108.585
X118.11Y-111.125
X118.11Y-113.665
X118.745Y-117.475
X124.46Y-102.235
X124.46Y-109.855
T3
X119.38Y-87.63
X119.38Y-90.17
X119.38Y-92.71
T4
X68.5Y-100.0
X71.04Y-100.0
X72.52Y-85.0
X72.52Y-115.0
X75.06Y-85.0
X75.06Y-115.0
X83.5Y-74.93
X85.5Y-125.98
X86.04Y-74.93
X88.04Y-125.98
X98.5Y-70.0
X98.5Y-130.0
X101.04Y-70.0
X101.04Y-130.0
X113.5Y-74.98
X113.5Y-125.98
X116.04Y-74.98
X116.04Y-125.98
X124.48Y-85.0
X124.48Y-115.0
X127.02Y-85.0
X127.02Y-115.0
X128.5Y-100.0
X131.04Y-100.0
T5
X86.36Y-105.43
X86.36Y-113.03
T6
X97.79Y-107.315
X97.79Y-111.815
X104.29Y-107.315
X104.29Y-111.815
T0
M30
