G04 #@! TF.GenerationSoftware,KiCad,Pcbnew,6.0.5-a6ca702e91~116~ubuntu20.04.1*
G04 #@! TF.CreationDate,2022-06-19T21:22:33+02:00*
G04 #@! TF.ProjectId,attiny85_charlie_circle,61747469-6e79-4383-955f-636861726c69,0.10*
G04 #@! TF.SameCoordinates,Original*
G04 #@! TF.FileFunction,Copper,L2,Bot*
G04 #@! TF.FilePolarity,Positive*
%FSLAX46Y46*%
G04 Gerber Fmt 4.6, Leading zero omitted, Abs format (unit mm)*
G04 Created by KiCad (PCBNEW 6.0.5-a6ca702e91~116~ubuntu20.04.1) date 2022-06-19 21:22:33*
%MOMM*%
%LPD*%
G01*
G04 APERTURE LIST*
G04 #@! TA.AperFunction,ComponentPad*
%ADD10R,1.524000X1.524000*%
G04 #@! TD*
G04 #@! TA.AperFunction,ComponentPad*
%ADD11C,1.524000*%
G04 #@! TD*
G04 #@! TA.AperFunction,ComponentPad*
%ADD12C,1.600000*%
G04 #@! TD*
G04 #@! TA.AperFunction,ComponentPad*
%ADD13O,1.600000X1.600000*%
G04 #@! TD*
G04 #@! TA.AperFunction,ComponentPad*
%ADD14R,1.600000X1.600000*%
G04 #@! TD*
G04 #@! TA.AperFunction,ComponentPad*
%ADD15R,1.800000X1.800000*%
G04 #@! TD*
G04 #@! TA.AperFunction,ComponentPad*
%ADD16C,1.800000*%
G04 #@! TD*
G04 #@! TA.AperFunction,ComponentPad*
%ADD17R,2.000000X2.000000*%
G04 #@! TD*
G04 #@! TA.AperFunction,ComponentPad*
%ADD18C,2.000000*%
G04 #@! TD*
G04 #@! TA.AperFunction,ComponentPad*
%ADD19C,1.400000*%
G04 #@! TD*
G04 #@! TA.AperFunction,Conductor*
%ADD20C,0.500000*%
G04 #@! TD*
G04 APERTURE END LIST*
D10*
X119380000Y-87630000D03*
D11*
X119380000Y-90170000D03*
X119380000Y-92710000D03*
D12*
X124460000Y-102235000D03*
D13*
X124460000Y-109855000D03*
D12*
X102235000Y-123825000D03*
D13*
X102235000Y-116205000D03*
D12*
X118745000Y-117475000D03*
D13*
X111125000Y-117475000D03*
D12*
X107315000Y-123825000D03*
D13*
X107315000Y-116205000D03*
D14*
X110490000Y-106045000D03*
D13*
X110490000Y-108585000D03*
X110490000Y-111125000D03*
X110490000Y-113665000D03*
X118110000Y-113665000D03*
X118110000Y-111125000D03*
X118110000Y-108585000D03*
X118110000Y-106045000D03*
D15*
X124480000Y-85000000D03*
D16*
X127020000Y-85000000D03*
D15*
X128500000Y-100000000D03*
D16*
X131040000Y-100000000D03*
D15*
X124480000Y-115000000D03*
D16*
X127020000Y-115000000D03*
D15*
X113500000Y-125980000D03*
D16*
X116040000Y-125980000D03*
D15*
X98500000Y-130000000D03*
D16*
X101040000Y-130000000D03*
D15*
X85500000Y-125980000D03*
D16*
X88040000Y-125980000D03*
D15*
X72520000Y-115000000D03*
D16*
X75060000Y-115000000D03*
D15*
X68500000Y-100000000D03*
D16*
X71040000Y-100000000D03*
D15*
X72520000Y-85000000D03*
D16*
X75060000Y-85000000D03*
D15*
X83500000Y-74930000D03*
D16*
X86040000Y-74930000D03*
D15*
X98500000Y-70000000D03*
D16*
X101040000Y-70000000D03*
D17*
X86360000Y-113030000D03*
D18*
X86360000Y-105430000D03*
X104290000Y-107315000D03*
X97790000Y-107315000D03*
X104290000Y-111815000D03*
X97790000Y-111815000D03*
D15*
X113500000Y-74980000D03*
D16*
X116040000Y-74980000D03*
D19*
X115570000Y-102235000D03*
X113070000Y-102235000D03*
D20*
X72520000Y-109030000D02*
X72520000Y-115000000D01*
X101040000Y-130000000D02*
X89540000Y-118500000D01*
X75060000Y-106490000D02*
X72520000Y-109030000D01*
X107215000Y-123825000D02*
X107315000Y-123825000D01*
X121400000Y-122528498D02*
X121400000Y-107950000D01*
X107315000Y-123825000D02*
X111340000Y-127850000D01*
X101040000Y-130000000D02*
X107215000Y-123825000D01*
X128500000Y-100850000D02*
X128500000Y-100000000D01*
X89540000Y-118500000D02*
X76020000Y-118500000D01*
X75060000Y-85000000D02*
X75060000Y-106490000D01*
X116078498Y-127850000D02*
X121400000Y-122528498D01*
X76020000Y-118500000D02*
X72520000Y-115000000D01*
X121400000Y-107950000D02*
X128500000Y-100850000D01*
X111340000Y-127850000D02*
X116078498Y-127850000D01*
X106000000Y-82480000D02*
X113500000Y-74980000D01*
X106000000Y-120060000D02*
X106000000Y-82480000D01*
X102235000Y-123825000D02*
X106000000Y-120060000D01*
X124460000Y-102235000D02*
X120350000Y-106345000D01*
X120350000Y-121670000D02*
X116040000Y-125980000D01*
X120350000Y-106345000D02*
X120350000Y-121670000D01*
X107315000Y-116205000D02*
X107315000Y-111760000D01*
X107315000Y-111760000D02*
X110490000Y-108585000D01*
M02*
